<svg height="590" width="590" xmlns="http://www.w3.org/2000/svg"><path d="M-308.877-1353.063c-152.349 0-276.297-123.943-276.297-276.289 0-152.361 123.948-276.305 276.297-276.305 152.346 0 276.297 123.943 276.297 276.305 0 152.346-123.951 276.289-276.297 276.289z" fill="#e6eaef"/><linearGradient gradientUnits="userSpaceOnUse" id="a" x1="-317.597" x2="-310.098" y1="-1378.271" y2="-1891.245"><stop offset="0" stop-color="#00bfbf"/><stop offset=".165" stop-color="#0ff"/><stop offset=".314" stop-color="#6ff"/><stop offset=".47" stop-color="#9ff"/><stop offset=".631" stop-color="#72ffff"/><stop offset=".805" stop-color="#13ffff"/><stop offset="1" stop-color="#00caca"/></linearGradient><path d="M-54.78-1631.879c0 143.104-116.011 259.107-259.117 259.107-143.094 0-259.102-116.004-259.102-259.107 0-143.102 116.008-259.098 259.102-259.098 143.105 0 259.117 115.997 259.117 259.098z" fill-rule="evenodd" clip-rule="evenodd" fill="url(#a)"/><linearGradient gradientUnits="userSpaceOnUse" id="b" x1="-368.545" x2="-257.922" y1="-1357.065" y2="-1886.309"><stop offset="0" stop-color="#00bfbf"/><stop offset=".165" stop-color="#0ff"/><stop offset=".314" stop-color="#6ff"/><stop offset=".47" stop-color="#9ff"/><stop offset=".631" stop-color="#72ffff"/><stop offset=".805" stop-color="#13ffff"/><stop offset="1" stop-color="#00caca"/></linearGradient><path d="M-311.109-1339c-161.487 0-292.881-131.383-292.881-292.879 0-161.502 131.395-292.891 292.881-292.891 161.501 0 292.892 131.389 292.892 292.891 0 161.496-131.39 292.879-292.892 292.879zm0-559.488c-147.002 0-266.607 119.574-266.607 266.609 0 147.006 119.605 266.605 266.607 266.605 147.021 0 266.611-119.6 266.611-266.605 0-147.035-119.59-266.609-266.611-266.609z" fill="url(#b)"/><path d="M-97.642-1830.406a293.855 293.855 0 015.156 48.518c29.212 42.758 46.309 94.414 46.309 150.01 0 147.006-119.591 266.605-266.593 266.605-116.084 0-215.054-74.58-251.57-178.326a295.158 295.158 0 01-36.078-33.08C-574.527-1441.488-455.408-1339-312.77-1339c161.483 0 292.866-131.383 292.866-292.879 0-76.537-29.507-146.283-77.738-198.527z" fill="#232121" opacity=".3"/><path d="M-106.576-1788.961a260.402 260.402 0 012.644 36.977c0 143.088-116.003 259.1-259.106 259.1-84.032 0-158.713-40.02-206.049-102.031 17.939 125.586 125.914 222.145 256.457 222.145 143.099 0 259.102-116.004 259.102-259.107 0-59.074-19.77-113.508-53.048-157.084z" opacity=".2" fill-rule="evenodd" clip-rule="evenodd" fill="#232121"/><path d="M909.148 1184.938c-152.349 0-276.297-123.943-276.297-276.289 0-152.361 123.948-276.305 276.297-276.305 152.346 0 276.297 123.943 276.297 276.305 0 152.345-123.951 276.289-276.297 276.289z" fill="#e6eaef"/><linearGradient gradientUnits="userSpaceOnUse" id="c" x1="901.876" x2="906.376" y1="1166.018" y2="648.543"><stop offset=".004" stop-color="#5c9732"/><stop offset=".195" stop-color="#7ac943"/><stop offset=".36" stop-color="#95d469"/><stop offset=".397" stop-color="#97d56c"/><stop offset=".429" stop-color="#9fd877"/><stop offset=".459" stop-color="#abdd89"/><stop offset=".466" stop-color="#afdf8e"/><stop offset=".48" stop-color="#abdd88"/><stop offset=".525" stop-color="#a1d97a"/><stop offset=".564" stop-color="#9dd875"/><stop offset=".733" stop-color="#83cd4f"/><stop offset="1" stop-color="#61a035"/></linearGradient><path d="M1163.246 906.121c0 143.104-116.012 259.107-259.117 259.107-143.094 0-259.102-116.004-259.102-259.107 0-143.102 116.008-259.098 259.102-259.098 143.105 0 259.117 115.997 259.117 259.098z" fill-rule="evenodd" clip-rule="evenodd" fill="url(#c)"/><linearGradient gradientUnits="userSpaceOnUse" id="d" x1="849.481" x2="960.105" y1="1180.935" y2="651.691"><stop offset=".004" stop-color="#5c9732"/><stop offset=".195" stop-color="#7ac943"/><stop offset=".36" stop-color="#95d469"/><stop offset=".397" stop-color="#97d56c"/><stop offset=".429" stop-color="#9fd877"/><stop offset=".459" stop-color="#abdd89"/><stop offset=".466" stop-color="#afdf8e"/><stop offset=".48" stop-color="#abdd88"/><stop offset=".525" stop-color="#a1d97a"/><stop offset=".564" stop-color="#9dd875"/><stop offset=".733" stop-color="#83cd4f"/><stop offset="1" stop-color="#61a035"/></linearGradient><path d="M906.917 1199c-161.487 0-292.881-131.383-292.881-292.879 0-161.502 131.395-292.891 292.881-292.891 161.501 0 292.892 131.389 292.892 292.891 0 161.496-131.391 292.879-292.892 292.879zm0-559.488c-147.002 0-266.607 119.574-266.607 266.609 0 147.006 119.605 266.605 266.607 266.605 147.021 0 266.61-119.6 266.61-266.605 0-147.035-119.589-266.609-266.61-266.609z" fill="url(#d)"/><path d="M1120.383 707.594a293.748 293.748 0 015.156 48.518c29.213 42.758 46.309 94.414 46.309 150.01 0 147.006-119.59 266.605-266.592 266.605-116.084 0-215.054-74.58-251.57-178.326a295.158 295.158 0 01-36.078-33.08C643.499 1096.512 762.618 1199 905.256 1199c161.483 0 292.865-131.383 292.865-292.879 0-76.537-29.506-146.283-77.738-198.527z" fill="#232121" opacity=".3"/><g clip-rule="evenodd"><path d="M954.283 1006.549c0 6.085.775 12.308-.409 18.135-.431 2.122-5.434 4.418-8.517 4.681-7.203.616-13.417 1.556-13.362 10.695.054 9.399 6.354 11.396 14.081 11.548.388.008.78.068 1.162.023 11.036-1.372 25.851 5.172 31.83-7.467 6.708-14.187 4.682-30.639-2.682-44.809-2.33-4.485-9.379-7.601-14.883-9.115-9.256-2.543-18.985-3.432-28.55-4.777-13.783-1.939-22.79-9.03-25.544-23.434-2.367 8.535-4.414 16.739-6.941 24.799-3.018 9.621-10.017 13.738-19.747 11.875-22.751-4.357-45.447-9.012-68.104-13.84-11.403-2.428-18.594-10.332-20.943-21.152-6.222-28.662-12.831-57.342-16.767-86.357-3.211-23.697 6.763-33.511 30.662-34.997 8.112-.505 16.278-.245 24.418-.202 8.281.044 11.978-4.057 11.851-12.224a895.54 895.54 0 01.014-27.912c.213-13.585 6.516-23.582 19.803-24.544 17.053-1.231 34.48.14 51.49 2.369 5.344.699 11.523 6.89 14.332 12.162 3.653 6.863 8.141 7.634 14.81 8.031 19.64 1.177 39.274 2.795 58.823 5.018 16.283 1.853 26.023 11.506 27.751 27.936 7.149 67.912 11.969 135.788-6.258 202.934-.301 1.117-.534 2.26-.883 3.365-15.25 48.246-28.726 47.176-61.851 46.228-10.408-.298-20.92-.62-31.161-2.293-17.313-2.832-25.415-12.806-26.007-30.14-.08-2.321.053-4.647.064-6.976.168-35.166 16.307-47.537 51.518-39.56zm31.649-83.494c1.348-8.7-1.996-14.83-10.719-16.424-9.893-1.807-14.748 3.943-16.106 13.822l26.825 2.602z" fill-rule="evenodd"/><path d="M787.121 839.079c14.874-15.053 33.246-33.643 49.481-50.075 0 10.613-.196 24.389.072 38.158.159 8.391-3.673 12.004-11.833 11.947-14.087-.099-28.174-.03-37.72-.03z" fill-rule="evenodd"/><path d="M985.932 923.055l-26.825-2.602c1.358-9.879 6.214-15.629 16.106-13.822 8.723 1.594 12.066 7.723 10.719 16.424z" fill="none"/></g><path d="M1111.449 749.039a260.402 260.402 0 012.645 36.977c0 143.088-116.004 259.1-259.106 259.1-84.032 0-158.713-40.02-206.049-102.031 17.939 125.586 125.914 222.145 256.457 222.145 143.099 0 259.103-116.004 259.103-259.107-.001-59.074-19.772-113.508-53.05-157.084z" opacity=".2" fill-rule="evenodd" clip-rule="evenodd" fill="#232121"/><path d="M906.112 573.822c-152.349 0-276.296-123.943-276.296-276.289 0-152.361 123.948-276.305 276.296-276.305 152.347 0 276.298 123.943 276.298 276.305 0 152.346-123.951 276.289-276.298 276.289z" fill="#e6eaef"/><linearGradient gradientUnits="userSpaceOnUse" id="e" x1="901.854" x2="900.353" y1="554.112" y2="38.138"><stop offset="0" stop-color="#b96e17"/><stop offset=".152" stop-color="#f7931e"/><stop offset=".301" stop-color="#f9a94b"/><stop offset=".458" stop-color="#fabe78"/><stop offset=".585" stop-color="#f8a23e"/><stop offset=".758" stop-color="#f89a2d"/><stop offset="1" stop-color="#c97719"/></linearGradient><path d="M1160.21 295.006c0 143.104-116.012 259.107-259.117 259.107-143.094 0-259.102-116.004-259.102-259.107 0-143.102 116.008-259.098 259.102-259.098 143.105 0 259.117 115.996 259.117 259.098z" fill-rule="evenodd" clip-rule="evenodd" fill="url(#e)"/><linearGradient gradientUnits="userSpaceOnUse" id="f" x1="846.445" x2="957.069" y1="569.82" y2="40.577"><stop offset="0" stop-color="#b96e17"/><stop offset=".152" stop-color="#f7931e"/><stop offset=".301" stop-color="#f9a94b"/><stop offset=".458" stop-color="#fabe78"/><stop offset=".585" stop-color="#f8a23e"/><stop offset=".758" stop-color="#f89a2d"/><stop offset="1" stop-color="#c97719"/></linearGradient><path d="M903.881 587.885C742.395 587.885 611 456.502 611 295.006 611 133.504 742.395 2.115 903.881 2.115c161.502 0 292.893 131.389 292.893 292.891-.001 161.496-131.391 292.879-292.893 292.879zm0-559.489c-147.002 0-266.607 119.574-266.607 266.609 0 147.006 119.605 266.605 266.607 266.605 147.021 0 266.611-119.6 266.611-266.605 0-147.034-119.591-266.609-266.611-266.609z" fill="url(#f)"/><path d="M1117.348 96.479a293.748 293.748 0 015.156 48.518c29.213 42.758 46.309 94.414 46.309 150.01 0 147.006-119.591 266.605-266.592 266.605-116.084 0-215.054-74.58-251.57-178.326a295.158 295.158 0 01-36.078-33.08c25.891 135.191 145.01 237.68 287.648 237.68 161.484 0 292.866-131.383 292.866-292.879-.001-76.538-29.508-146.284-77.739-198.528z" fill="#232121" opacity=".3"/><path d="M1108.414 137.924a260.402 260.402 0 012.644 36.977c0 143.088-116.003 259.1-259.105 259.1-84.032 0-158.713-40.02-206.049-102.031 17.939 125.586 125.914 222.145 256.457 222.145 143.098 0 259.102-116.004 259.102-259.107-.001-59.074-19.772-113.508-53.049-157.084z" opacity=".2" fill-rule="evenodd" clip-rule="evenodd" fill="#232121"/><path d="M1026.408 429.738c-5.916-.318-11.828-.727-17.746-.928-5.211-.178-6.189-3.033-5.994-7.693 1.65-39.539-1.551-78.484-12.076-116.896-9.982-36.436-32.455-59.631-68.314-70.74-22.933-7.106-46.229-12.021-70.172-13.643-16.125-1.09-32.273-1.917-48.421-2.549-4.166-.163-5.619-1.577-5.54-5.661.182-9.586.19-19.18-.005-28.765-.075-3.737 1.438-5.524 4.991-5.818 9.285-.769 18.562-1.992 27.86-2.177 31.48-.618 62.804.713 93.647 8.063 29.492 7.025 56.953 18.239 79.576 38.932 18.311 16.751 27.59 38.8 33.754 62.289 6.852 26.108 10.166 52.691 9.664 79.7-.361 19.549-.936 39.096-1.416 58.644-.117 4.858-1.941 7.693-7.471 7.195-4.078-.365-8.211-.07-12.322-.07-.005.038-.009.079-.015.117z" fill-rule="evenodd" clip-rule="evenodd" fill="#fff"/><path d="M829.309 257.34c27.346-1.65 51.218 2.307 74.49 10.578 33.508 11.912 51.92 36.164 58.734 70.394 5.031 25.276 4.379 50.796 4.08 76.32-.035 2.925-.291 6.079-1.443 8.686-.871 1.975-3.295 4.569-5.092 4.62-13.467.386-26.949.186-40.426.215-4.531.009-4.98-2.583-4.721-6.344.971-14.077 2.473-28.179 2.314-42.255-.164-14.615-2.615-29.122-10.186-42.067-10.738-18.37-28.679-24.259-48.234-27.096-17.751-2.575-35.443-1.823-53.067 1.18-5.262.897-7.552-.838-7.46-6.418.217-13.246.283-26.503-.037-39.743-.14-5.76 2.648-7.926 7.663-8.022 8.675-.17 17.355-.048 23.385-.048z" fill-rule="evenodd" clip-rule="evenodd" fill="#fff"/><path d="M839.487 426.955c-24.891-.021-44.104-19.329-44.047-44.263.056-24.306 19.406-43.763 43.861-44.104 25.038-.35 45.184 19.777 45.218 44.967.032 24.706-21.915 44.793-45.032 43.4z" fill-rule="evenodd" clip-rule="evenodd" fill="#fff"/><path d="M909.339-38.293c-152.349 0-276.296-123.943-276.296-276.289 0-152.361 123.948-276.305 276.296-276.305 152.347 0 276.298 123.943 276.298 276.305 0 152.346-123.951 276.289-276.298 276.289z" fill="#e6eaef"/><linearGradient gradientUnits="userSpaceOnUse" id="g" x1="903.346" x2="905.347" y1="-59.002" y2="-585.003"><stop offset="0" stop-color="#b2151b"/><stop offset=".203" stop-color="#ed1c24"/><stop offset=".39" stop-color="#f14950"/><stop offset=".517" stop-color="#f4777c"/><stop offset=".644" stop-color="#f04047"/><stop offset=".746" stop-color="#ef3037"/><stop offset="1" stop-color="#b9161c"/></linearGradient><path d="M1163.437-317.109c0 143.104-116.011 259.107-259.117 259.107-143.094 0-259.102-116.004-259.102-259.107 0-143.102 116.008-259.098 259.102-259.098 143.106 0 259.117 115.996 259.117 259.098z" fill-rule="evenodd" clip-rule="evenodd" fill="url(#g)"/><linearGradient gradientUnits="userSpaceOnUse" id="h" x1="849.672" x2="960.295" y1="-42.296" y2="-571.54"><stop offset="0" stop-color="#b2151b"/><stop offset=".203" stop-color="#ed1c24"/><stop offset=".39" stop-color="#f14950"/><stop offset=".517" stop-color="#f4777c"/><stop offset=".644" stop-color="#f04047"/><stop offset=".746" stop-color="#ef3037"/><stop offset="1" stop-color="#b9161c"/></linearGradient><path d="M907.108-24.23c-161.487 0-292.882-131.383-292.882-292.879C614.227-478.611 745.621-610 907.108-610 1068.609-610 1200-478.611 1200-317.109c0 161.496-131.391 292.879-292.892 292.879zm0-559.489c-147.003 0-266.608 119.574-266.608 266.609 0 147.006 119.605 266.605 266.608 266.605 147.021 0 266.61-119.6 266.61-266.605.001-147.035-119.589-266.609-266.61-266.609z" fill="url(#h)"/><path d="M1120.574-515.637a293.748 293.748 0 015.156 48.518c29.213 42.758 46.309 94.414 46.309 150.01 0 147.006-119.59 266.605-266.593 266.605-116.084 0-215.054-74.58-251.57-178.326a295.158 295.158 0 01-36.078-33.08c25.891 135.191 145.01 237.68 287.647 237.68 161.483 0 292.866-131.383 292.866-292.879.002-76.537-29.505-146.284-77.737-198.528z" fill="#232121" opacity=".3"/><path d="M1111.641-474.191a260.55 260.55 0 012.645 36.977c0 143.088-116.004 259.1-259.106 259.1-84.032 0-158.713-40.02-206.049-102.031C667.068-154.561 775.043-58.002 905.587-58.002c143.099 0 259.102-116.004 259.102-259.107-.001-59.073-19.771-113.506-53.048-157.082z" opacity=".2" fill-rule="evenodd" clip-rule="evenodd" fill="#232121"/><path d="M894.597-241.743l-45.854 106.83a14672.81 14672.81 0 00-13.036-3.122c0-23.38-2.293-47.054.624-70.063 3.172-25.041 12.362-49.267 16.694-74.235 2.978-17.147 1.078-35.09 3.304-52.428 2.095-16.348 3.078-34.755 11.527-47.705 5.747-8.812 25.889-16.028 35.229-12.476 9.062 3.449 17.604 21.666 17.341 33.187-.422 18.28-10.577 36.17-12.353 54.635-1.176 12.207 1.398 32.008 8.946 36.078 10.578 5.706 30.051 4.573 40.947-1.793 30.69-17.915 44.971-88.326 28.227-124.176-15.019-32.175-52.882-46.059-98.024-35.938-40.067 8.985-69.09 47.633-65.775 90.178.907 11.629 9.345 22.618 10.566 34.293 1.039 10.002-3.293 20.567-5.249 30.882-8.201-3.227-18.026-4.575-24.314-10.013-24.436-21.146-30.404-67.836-14.92-105.645 35.427-86.545 165.093-108.919 227.84-39.314 47.815 53.046 30.922 158.085-31.122 193.509-29.646 16.93-55.973 16.146-90.598-2.684z" fill-rule="evenodd" clip-rule="evenodd" fill="#fff"/><path d="M299.788 1185.71c-152.349 0-276.297-123.943-276.297-276.289 0-152.361 123.948-276.305 276.297-276.305 152.346 0 276.297 123.943 276.297 276.305 0 152.346-123.951 276.289-276.297 276.289z" fill="#e6eaef"/><linearGradient gradientUnits="userSpaceOnUse" id="i" x1="296.291" x2="293.291" y1="1162.97" y2="655.919"><stop offset="0" stop-color="#bfbf00"/><stop offset=".322" stop-color="#f6fd07"/><stop offset=".513" stop-color="#ff6"/><stop offset=".557" stop-color="#fdfe52"/><stop offset=".687" stop-color="#f6fb1c"/><stop offset=".75" stop-color="#f4fa07"/><stop offset=".879" stop-color="#dcdf04"/><stop offset="1" stop-color="#c9ca01"/></linearGradient><path d="M553.885 906.894c0 143.104-116.011 259.107-259.117 259.107-143.094 0-259.102-116.004-259.102-259.107 0-143.102 116.008-259.098 259.102-259.098 143.107 0 259.117 115.996 259.117 259.098z" fill-rule="evenodd" clip-rule="evenodd" fill="url(#i)"/><linearGradient gradientUnits="userSpaceOnUse" id="j" x1="240.12" x2="350.744" y1="1181.707" y2="652.463"><stop offset="0" stop-color="#bfbf00"/><stop offset=".322" stop-color="#f6fd07"/><stop offset=".513" stop-color="#ff6"/><stop offset=".557" stop-color="#fdfe52"/><stop offset=".687" stop-color="#f6fb1c"/><stop offset=".75" stop-color="#f4fa07"/><stop offset=".879" stop-color="#dcdf04"/><stop offset="1" stop-color="#c9ca01"/></linearGradient><path d="M297.557 1199.772c-161.487 0-292.881-131.383-292.881-292.879 0-161.502 131.395-292.891 292.881-292.891 161.501 0 292.892 131.389 292.892 292.891 0 161.497-131.391 292.879-292.892 292.879zm0-559.488c-147.002 0-266.607 119.574-266.607 266.609 0 147.006 119.605 266.605 266.607 266.605 147.021 0 266.611-119.6 266.611-266.605-.001-147.035-119.59-266.609-266.611-266.609z" fill="url(#j)"/><path d="M511.023 708.366a293.748 293.748 0 015.156 48.518c29.213 42.758 46.309 94.414 46.309 150.01 0 147.006-119.59 266.605-266.592 266.605-116.084 0-215.054-74.58-251.57-178.326a295.158 295.158 0 01-36.078-33.08c25.891 135.191 145.01 237.68 287.648 237.68 161.483 0 292.866-131.383 292.866-292.879-.001-76.538-29.508-146.284-77.739-198.528z" fill="#232121" opacity=".3"/><path d="M452.775 991.597c-5.041 2.562-8.71 5.056-12.763 6.338-6.445 2.037-13.074 3.806-19.757 4.677-6.212.81-8.879 4.145-9.93 9.709-.313 1.665-1.006 3.288-1.118 4.958-.346 5.138-3.251 5.181-7.465 4.72-8.601-.94-17.295-1.837-25.918-1.596-11.824.331-21.074 7.264-30.123 13.99-12.698 9.434-26.533 15.488-42.602 13.272-7.211-.993-14.391-3.338-21.151-6.118-5.014-2.064-9.639-5.439-13.903-8.89-15.799-12.791-33.598-15.166-52.858-10.972-2.206.48-4.5.555-6.233.756-.735-.664-1.017-.797-1.022-.941-.632-14.709-9.343-19.914-22.965-21.141-7.357-.664-14.949-3.02-20.894-9.482 1.568-.688 2.584-1.321 3.689-1.593 30.887-7.586 49.746-28.577 62.19-56.364 3.821-8.535.988-15.804-6.985-20.776-3.022-1.884-6.472-3.116-9.802-4.466-3.534-1.432-7.362-2.265-10.678-4.066-3.453-1.875-9.402-3.324-7.064-8.716 2.17-5.007 7.341-4.187 12.288-2.897 5.836 1.522 11.944 2.719 17.937 2.729 5.566.01 8.216-3.246 7.869-9.705-.807-15.019-1.777-30.176-.649-45.121 1.991-26.401 17.014-44.914 40.814-54.619 30.006-12.233 59.698-10.394 85.88 10.492 15.021 11.984 23.977 28.045 23.944 47.908-.022 13.568-.62 27.141-1.09 40.707-.262 7.513 1.63 10.36 9.084 10.553 4.522.117 9.102-1.37 13.626-2.276 2.263-.455 4.661-2.104 6.643-1.652 3.246.736 6.203 2.745 9.281 4.217-1.896 2.486-3.286 5.912-5.794 7.264-5.175 2.788-10.985 4.378-16.466 6.626-14.102 5.785-17.782 14.814-10.887 28.348 13.167 25.84 31.797 45.46 61.397 52.036.562.124 1.045.609 3.475 2.091z" fill-rule="evenodd" clip-rule="evenodd" fill="#fff"/><path d="M309.708 1050.123c-2.272 0-4.587-.16-6.881-.477-6.517-.897-13.595-2.942-21.639-6.25-5.471-2.253-10.349-5.907-14.4-9.185-10.327-8.36-21.778-12.425-35.009-12.425-5.083 0-10.522.623-16.167 1.853-1.675.365-3.34.508-4.809.635-.576.05-1.122.096-1.619.153l-.899.104-.672-.606c-.265-.239-.463-.4-.605-.516-.388-.316-1.038-.845-1.075-1.836-.523-12.183-6.848-17.936-21.146-19.223-9.45-.854-16.708-4.164-22.187-10.121l-1.896-2.061 2.565-1.125c.517-.227.97-.447 1.386-.648.875-.425 1.7-.826 2.629-1.055 27.296-6.704 47.198-24.772 60.842-55.239 4.16-9.294-1.085-15.061-6.218-18.262-2.363-1.474-5.128-2.571-7.802-3.633-.566-.225-1.131-.449-1.693-.677-1.279-.519-2.592-.952-3.982-1.411-2.303-.761-4.684-1.548-6.899-2.751-.549-.299-1.167-.585-1.803-.881-3.096-1.44-8.858-4.121-6.142-10.389 1.462-3.372 4.2-5.081 8.137-5.081 2.187 0 4.508.527 6.49 1.044 6.937 1.81 12.477 2.656 17.436 2.664 2.034 0 3.465-.478 4.396-1.459 1.131-1.194 1.627-3.26 1.472-6.139l-.17-3.144c-.755-13.865-1.535-28.203-.476-42.235 1.994-26.439 16.536-45.915 42.053-56.32 12.624-5.147 25.037-7.757 36.896-7.757 18.413 0 35.567 6.237 50.987 18.537 16.189 12.915 24.729 30.023 24.697 49.475-.019 11.146-.43 22.46-.828 33.402-.089 2.457-.179 4.914-.264 7.371-.126 3.617.289 5.731 1.345 6.854.975 1.035 2.815 1.554 5.792 1.631 3.082.073 6.214-.653 9.54-1.429 1.216-.284 2.432-.567 3.643-.81.668-.135 1.418-.426 2.212-.733 1.312-.509 2.668-1.035 4.102-1.035.402 0 .793.043 1.165.127 2.546.577 4.843 1.81 7.064 3 .907.486 1.764.946 2.636 1.362l2.219 1.062-1.491 1.956c-.534.7-1.037 1.504-1.568 2.354-1.315 2.103-2.674 4.276-4.867 5.458-3.482 1.876-7.233 3.227-10.861 4.534-1.919.69-3.903 1.405-5.795 2.182-6.708 2.752-10.725 6.128-12.28 10.321-1.52 4.099-.729 9.093 2.417 15.268 14.759 28.969 33.84 45.172 60.048 50.995.691.152 1.186.478 2.006 1.017.468.307 1.116.733 2.076 1.318l3.061 1.867-3.196 1.624c-1.616.82-3.082 1.632-4.5 2.416-3.03 1.675-5.646 3.122-8.565 4.046-7.835 2.477-14.223 3.986-20.103 4.753-4.939.644-7.245 2.914-8.223 8.097-.141.746-.34 1.454-.532 2.139-.258.917-.502 1.782-.555 2.582-.307 4.555-2.539 6.769-6.823 6.769-.952 0-1.977-.099-2.855-.194-9.173-1.003-17.359-1.817-25.645-1.585-11.116.312-20.11 6.998-28.808 13.464l-.178.133c-12.793 9.504-24.956 14.124-37.186 14.125zm-77.929-32.336c14.183 0 26.458 4.355 37.525 13.315 3.826 3.096 8.412 6.538 13.406 8.595 7.726 3.178 14.485 5.136 20.663 5.986a46.45 46.45 0 006.335.439c11.497-.001 22.555-4.238 34.801-13.336l.177-.132c9.196-6.836 18.705-13.905 31.082-14.252 8.533-.235 16.874.587 26.192 1.606.771.084 1.661.171 2.42.171 1.727 0 2.637-.136 2.832-3.037.082-1.214.394-2.323.696-3.396.177-.629.344-1.223.452-1.797 1.294-6.858 4.992-10.456 11.637-11.322 5.64-.735 11.809-2.197 19.413-4.601 2.539-.803 4.994-2.16 7.836-3.732.509-.281 1.024-.566 1.552-.854l-.022-.011c-26.996-5.989-47.521-23.354-62.654-53.055-3.682-7.227-4.533-13.27-2.602-18.476 1.965-5.299 6.712-9.431 14.512-12.631 1.973-.809 3.999-1.538 5.958-2.244 3.65-1.315 7.099-2.558 10.319-4.292 1.26-.68 2.287-2.32 3.374-4.058.144-.23.29-.463.438-.696-.246-.13-.49-.261-.731-.391-2.078-1.114-4.042-2.167-6.061-2.625-.623-.139-1.818.305-2.934.737-.917.355-1.865.723-2.872.926-1.172.234-2.345.509-3.521.783-3.421.799-6.976 1.625-10.552 1.531-4.17-.107-6.823-.998-8.602-2.888-2.353-2.5-2.549-6.323-2.43-9.733.085-2.459.175-4.918.264-7.378.397-10.908.807-22.188.825-33.263.03-18.449-7.773-34.041-23.191-46.342-14.693-11.721-31.009-17.664-48.493-17.664-11.338 0-23.244 2.51-35.386 7.46-24.018 9.794-37.702 28.093-39.575 52.918-1.039 13.773-.266 27.979.482 41.718l.17 3.146c.216 4.019-.646 7.082-2.563 9.104-1.703 1.797-4.151 2.708-7.278 2.708-5.335-.009-11.194-.896-18.466-2.793-1.736-.453-3.746-.915-5.481-.915-2.319 0-3.655.799-4.467 2.673-.96 2.214-.221 3.132 4.159 5.171a36.96 36.96 0 012.025.991c1.9 1.033 4.011 1.73 6.245 2.469 1.39.459 2.828.934 4.229 1.502.553.224 1.109.445 1.667.666 2.838 1.127 5.773 2.292 8.442 3.956 9.031 5.633 11.857 14.122 7.752 23.291-14.182 31.667-34.965 50.472-63.539 57.489a4.858 4.858 0 00-.706.242c4.524 3.977 10.315 6.24 17.613 6.898 10.055.905 23.447 4.186 24.722 21.974.193-.018.391-.034.592-.052 1.348-.116 2.876-.247 4.3-.558 5.925-1.287 11.65-1.941 17.019-1.941z"/><path d="M502.089 749.812a260.55 260.55 0 012.645 36.977c0 143.088-116.004 259.1-259.106 259.1-84.032 0-158.713-40.02-206.049-102.031 17.939 125.586 125.914 222.145 256.457 222.145 143.099 0 259.102-116.004 259.102-259.107-.001-59.075-19.771-113.508-53.049-157.084z" opacity=".2" fill-rule="evenodd" clip-rule="evenodd" fill="#232121"/><path d="M907.227-644.063c-152.35 0-276.297-123.943-276.297-276.289 0-152.361 123.948-276.305 276.297-276.305 152.346 0 276.297 123.943 276.297 276.305-.001 152.346-123.952 276.289-276.297 276.289z" fill="#e6eaef"/><linearGradient gradientUnits="userSpaceOnUse" id="k" x1="906.616" x2="897.615" y1="-669.011" y2="-1188.062"><stop offset="0" stop-color="#085a89"/><stop offset=".259" stop-color="#0b78b7"/><stop offset=".363" stop-color="#2184bd"/><stop offset=".508" stop-color="#3c93c5"/><stop offset=".729" stop-color="#2c8ac0"/><stop offset=".808" stop-color="#1e79ad"/><stop offset=".925" stop-color="#0e6597"/><stop offset="1" stop-color="#085e8f"/></linearGradient><path d="M1161.323-922.879c0 143.104-116.011 259.107-259.117 259.107-143.094 0-259.102-116.004-259.102-259.107 0-143.102 116.008-259.098 259.102-259.098 143.107 0 259.117 115.997 259.117 259.098z" fill-rule="evenodd" clip-rule="evenodd" fill="url(#k)"/><linearGradient gradientUnits="userSpaceOnUse" id="l" x1="897.697" x2="912.699" y1="-654.142" y2="-1206.197"><stop offset="0" stop-color="#085a89"/><stop offset=".259" stop-color="#0b78b7"/><stop offset=".363" stop-color="#2184bd"/><stop offset=".508" stop-color="#3c93c5"/><stop offset=".729" stop-color="#2c8ac0"/><stop offset=".808" stop-color="#1e79ad"/><stop offset=".925" stop-color="#0e6597"/><stop offset="1" stop-color="#085e8f"/></linearGradient><path d="M904.995-630c-161.487 0-292.881-131.383-292.881-292.879 0-161.502 131.395-292.891 292.881-292.891 161.501 0 292.892 131.389 292.892 292.891 0 161.496-131.391 292.879-292.892 292.879zm0-559.488c-147.002 0-266.607 119.574-266.607 266.609 0 147.006 119.605 266.605 266.607 266.605 147.021 0 266.611-119.6 266.611-266.605-.001-147.035-119.59-266.609-266.611-266.609z" fill="url(#l)"/><path d="M1118.461-1121.406a293.748 293.748 0 015.156 48.518c29.213 42.758 46.309 94.414 46.309 150.01 0 147.006-119.59 266.605-266.592 266.605-116.084 0-215.054-74.58-251.57-178.326a295.158 295.158 0 01-36.078-33.08C641.576-732.488 760.695-630 903.333-630c161.483 0 292.866-131.383 292.866-292.879 0-76.537-29.507-146.283-77.738-198.527z" fill="#232121" opacity=".3"/><path d="M1055.891-805.524h-57.826v-7.282c0-28.213.172-56.427-.11-84.637-.081-7.983-.815-16.096-2.443-23.9-2.829-13.569-10.446-20.402-24.163-21.084-12.545-.622-24.293 2.899-29.586 15.313-2.756 6.469-4.735 13.787-4.869 20.762-.598 30.959-.391 61.933-.492 92.901-.027 8.297-.061 8.306-8.51 8.31-14.849.006-29.7-.163-44.544.094-4.786.082-6.187-1.602-6.178-6.229.113-57.486.107-114.973.011-172.458-.006-4.348 1.349-5.966 5.849-5.9 15.057.222 30.121.213 45.181.004 4.394-.06 6.158 1.357 5.928 5.814-.262 5.021-.061 10.068-.061 16.521 8.816-12.152 19.171-20.516 32.453-23.876 25.611-6.481 50.24-5.276 70.725 13.921 12.064 11.304 17.107 26.724 17.559 42.5 1.223 42.57 1.029 85.181 1.393 127.775.001.204-.087.412-.317 1.451zm-212.118-91.853c0 28.421-.149 56.843.128 85.261.056 5.646-1.573 7.242-7.165 7.103-15.05-.374-30.117-.307-45.171-.028-5.1.095-7.139-1.269-7.125-6.696.144-57.055.143-114.108.001-171.163-.014-5.363 1.895-6.858 7.067-6.759 15.053.293 30.121.338 45.172-.019 5.5-.131 7.284 1.312 7.225 7.041-.289 28.417-.132 56.839-.132 85.26zm-63.383-149.852c.086-18.609 15.578-33.98 34.115-33.847 18.377.133 34.127 16.027 33.963 34.271-.169 18.881-15.818 34.216-34.702 34.006-18.67-.206-33.462-15.466-33.376-34.43z" fill-rule="evenodd" clip-rule="evenodd" fill="#fff"/><path d="M1109.527-1079.961a260.55 260.55 0 012.645 36.977c0 143.088-116.004 259.1-259.106 259.1-84.032 0-158.713-40.02-206.049-102.031C664.955-760.33 772.93-663.771 903.473-663.771c143.099 0 259.102-116.004 259.102-259.107 0-59.073-19.77-113.507-53.048-157.083z" opacity=".2" fill-rule="evenodd" clip-rule="evenodd" fill="#232121"/><path d="M299.339 575.938c-152.349 0-276.297-123.943-276.297-276.289 0-152.361 123.948-276.305 276.297-276.305 152.346 0 276.297 123.943 276.297 276.305.001 152.345-123.95 276.289-276.297 276.289z" fill="#e6eaef"/><linearGradient gradientUnits="userSpaceOnUse" id="m" x1="290.756" x2="298.755" y1="540.895" y2="-5.106"><stop offset="0" stop-color="#2881a7"/><stop offset=".064" stop-color="#2986ad"/><stop offset=".149" stop-color="#2d93be"/><stop offset=".247" stop-color="#34a8da"/><stop offset=".263" stop-color="#35acdf"/><stop offset=".428" stop-color="#5dbde5"/><stop offset=".661" stop-color="#41b1e1"/><stop offset="1" stop-color="#2984ab"/></linearGradient><path d="M553.437 297.121c0 143.104-116.011 259.107-259.117 259.107-143.094 0-259.102-116.004-259.102-259.107 0-143.102 116.008-259.098 259.102-259.098 143.105 0 259.117 115.997 259.117 259.098z" fill-rule="evenodd" clip-rule="evenodd" fill="url(#m)"/><linearGradient gradientUnits="userSpaceOnUse" id="n" x1="298.106" x2="296.106" y1="575.014" y2="15.014"><stop offset="0" stop-color="#2881a7"/><stop offset=".064" stop-color="#2986ad"/><stop offset=".149" stop-color="#2d93be"/><stop offset=".247" stop-color="#34a8da"/><stop offset=".263" stop-color="#35acdf"/><stop offset=".428" stop-color="#5dbde5"/><stop offset=".661" stop-color="#41b1e1"/><stop offset="1" stop-color="#2984ab"/></linearGradient><path d="M297.108 590C135.621 590 4.227 458.617 4.227 297.121 4.227 135.619 135.621 4.23 297.108 4.23 458.609 4.23 590 135.619 590 297.121 590 458.617 458.609 590 297.108 590zm0-559.488C150.105 30.512 30.5 150.086 30.5 297.121c0 147.006 119.605 266.605 266.607 266.605 147.021 0 266.611-119.6 266.611-266.605.001-147.035-119.59-266.609-266.61-266.609z" fill="url(#n)"/><path d="M510.575 98.594a293.855 293.855 0 015.156 48.518c29.212 42.758 46.309 94.414 46.309 150.01 0 147.006-119.591 266.605-266.593 266.605-116.084 0-215.054-74.58-251.57-178.326a295.158 295.158 0 01-36.078-33.08C33.689 487.512 152.809 590 295.447 590c161.483 0 292.866-131.383 292.866-292.879 0-76.537-29.507-146.283-77.738-198.527z" fill="#232121" opacity=".3"/><path d="M230 433s6.667 7.334 22-4.666L288.667 393l-49.333-32.703L230 433z" fill="#fff"/><path d="M243.333 360.297l122 86.703s20.001 9.77 25.334-11.781l50.666-226.885s9.334-31.334-44.666-10.667l-270 99.333s-31.333 16.666 10.667 26L202 342.334l41.333 17.963z" fill="#fff"/><path d="M202 342.334l172.667-106S388 231.666 382 241L243.333 360.297 238.667 433S234 434.333 230 433l-28-90.666z" fill="#d9d9d9"/><path d="M501.641 140.039a260.402 260.402 0 012.644 36.977c0 143.088-116.003 259.1-259.106 259.1-84.032 0-158.713-40.02-206.049-102.031C57.068 459.67 165.043 556.229 295.586 556.229c143.099 0 259.102-116.004 259.102-259.107 0-59.073-19.77-113.507-53.047-157.083z" opacity=".2" fill-rule="evenodd" clip-rule="evenodd" fill="#232121"/><path d="M299.339-34.063c-152.349 0-276.297-123.943-276.297-276.289 0-152.361 123.948-276.305 276.297-276.305 152.346 0 276.297 123.943 276.297 276.305.001 152.346-123.95 276.289-276.297 276.289z" fill="#e6eaef"/><linearGradient gradientUnits="userSpaceOnUse" id="o" x1="290.112" x2="299.113" y1="-85.237" y2="-571.285"><stop offset="0" stop-color="#2c654b"/><stop offset=".174" stop-color="#3a8764"/><stop offset=".322" stop-color="#619f83"/><stop offset=".458" stop-color="#89b7a2"/><stop offset=".585" stop-color="#6fa78e"/><stop offset=".763" stop-color="#448d6c"/><stop offset="1" stop-color="#307053"/></linearGradient><path d="M553.437-312.879c0 143.104-116.011 259.107-259.117 259.107-143.094 0-259.102-116.004-259.102-259.107 0-143.102 116.008-259.098 259.102-259.098 143.105 0 259.117 115.997 259.117 259.098z" fill-rule="evenodd" clip-rule="evenodd" fill="url(#o)"/><linearGradient gradientUnits="userSpaceOnUse" id="p" x1="239.672" x2="350.295" y1="-38.065" y2="-567.309"><stop offset="0" stop-color="#2c654b"/><stop offset=".174" stop-color="#3a8764"/><stop offset=".322" stop-color="#619f83"/><stop offset=".458" stop-color="#89b7a2"/><stop offset=".585" stop-color="#6fa78e"/><stop offset=".763" stop-color="#448d6c"/><stop offset="1" stop-color="#307053"/></linearGradient><path d="M297.108-20C135.621-20 4.227-151.383 4.227-312.879c0-161.502 131.395-292.891 292.881-292.891C458.609-605.77 590-474.381 590-312.879 590-151.383 458.609-20 297.108-20zm0-559.488C150.105-579.488 30.5-459.914 30.5-312.879c0 147.006 119.605 266.605 266.607 266.605 147.021 0 266.611-119.6 266.611-266.605.001-147.035-119.59-266.609-266.61-266.609z" fill="url(#p)"/><path d="M510.575-511.406a293.855 293.855 0 015.156 48.518c29.212 42.758 46.309 94.414 46.309 150.01 0 147.006-119.591 266.605-266.593 266.605-116.084 0-215.054-74.58-251.57-178.326a295.158 295.158 0 01-36.078-33.08C33.689-122.488 152.809-20 295.447-20c161.483 0 292.866-131.383 292.866-292.879 0-76.537-29.507-146.283-77.738-198.527z" fill="#232121" opacity=".3"/><linearGradient gradientUnits="userSpaceOnUse" id="q" x1="149.075" x2="454.332" y1="-312.071" y2="-312.071"><stop offset="0" stop-color="#adadad"/><stop offset=".301" stop-color="#e6e6e6"/><stop offset=".496" stop-color="#f5f5f5"/><stop offset=".686" stop-color="#fafafa"/><stop offset="1" stop-color="#bbb"/></linearGradient><path d="M149.075-158.347c.514-1.592.867-2.724 1.243-3.845 8.152-24.252 16.275-48.514 24.508-72.739.828-2.436.728-4.343-.572-6.63-37.555-66.026-20.513-148.791 40.513-194.284 34.933-26.041 74.404-35.141 117.241-27.144 64.36 12.015 112.58 63.5 121.09 128.329 8.099 61.698-24.27 123.732-79.749 151.786-43.317 21.905-87.4 22.592-131.836 3.157-.565-.247-1.199-.417-1.667-.791-5.36-4.264-10.774-3.409-16.928-1.347-23.478 7.87-47.124 15.235-70.711 22.777-.84.27-1.723.407-3.132.731z" fill-rule="evenodd" clip-rule="evenodd" fill="url(#q)"/><path d="M178.072-187.344c.42-1.303.708-2.228 1.018-3.146 6.668-19.84 13.314-39.688 20.049-59.505.678-1.994.596-3.554-.468-5.424-30.723-54.015-16.781-121.723 33.143-158.94 28.579-21.304 60.869-28.748 95.913-22.206 52.652 9.83 92.1 51.949 99.062 104.983 6.625 50.474-19.854 101.223-65.241 124.173-35.437 17.919-71.5 18.482-107.853 2.583-.462-.202-.98-.341-1.364-.647-4.385-3.489-8.815-2.789-13.849-1.102-19.206 6.439-38.551 12.464-57.847 18.634-.688.22-1.41.332-2.563.597z" fill-rule="evenodd" clip-rule="evenodd" fill="#3a8764"/><path d="M256.919-384.67c9.643.195 10.307.695 13.587 8.786 3.399 8.379 6.821 16.75 10.356 25.072 1.179 2.775 1.444 5.439-.315 7.913-2.786 3.919-5.658 7.791-8.713 11.502-2.741 3.328-3.049 4.571-.862 8.243 11.879 19.945 28.506 34.327 50.165 42.834 2.747 1.079 4.989.706 6.873-1.623 3.683-4.554 7.402-9.079 11.077-13.641 2.652-3.291 4.484-4.113 8.278-2.38 10.277 4.697 20.439 9.647 30.622 14.552 2.042.983 2.826 2.757 2.845 5.054.136 17.187-8.223 26.706-26.51 32.268-8.752 2.662-17.267.992-25.672-1.865-11.679-3.97-23.413-7.803-34.046-14.26-17.876-10.854-32.112-25.526-44.241-42.369-6.187-8.592-12.391-17.197-16.051-27.285-5.033-13.874-4.945-27.375 3.057-40.245 1.079-1.737 2.477-3.274 3.702-4.922 4.185-5.629 9.549-8.649 15.848-7.634z" fill-rule="evenodd" clip-rule="evenodd" fill="#fff"/><path d="M501.641-469.961a260.402 260.402 0 012.644 36.977c0 143.088-116.003 259.1-259.106 259.1-84.032 0-158.713-40.02-206.049-102.031C57.068-150.33 165.043-53.771 295.586-53.771c143.099 0 259.102-116.004 259.102-259.107 0-59.073-19.77-113.507-53.047-157.083z" opacity=".2" fill-rule="evenodd" clip-rule="evenodd" fill="#232121"/><path d="M299.012-644.547c-152.349 0-276.297-123.943-276.297-276.289 0-152.361 123.948-276.305 276.297-276.305 152.346 0 276.297 123.943 276.297 276.305.001 152.346-123.951 276.289-276.297 276.289z" fill="#e6eaef"/><linearGradient gradientUnits="userSpaceOnUse" id="r" x1="291.434" x2="297.435" y1="-682.882" y2="-1245.352"><stop offset="0" stop-color="#adadad"/><stop offset=".301" stop-color="#e6e6e6"/><stop offset=".496" stop-color="#f5f5f5"/><stop offset=".686" stop-color="#fafafa"/><stop offset="1" stop-color="#bbb"/></linearGradient><path d="M553.109-923.363c0 143.104-116.011 259.107-259.117 259.107-143.094 0-259.102-116.004-259.102-259.107 0-143.102 116.008-259.098 259.102-259.098 143.106 0 259.117 115.996 259.117 259.098z" fill-rule="evenodd" clip-rule="evenodd" fill="url(#r)"/><linearGradient gradientUnits="userSpaceOnUse" id="s" x1="239.344" x2="349.968" y1="-648.55" y2="-1177.794"><stop offset="0" stop-color="#adadad"/><stop offset=".301" stop-color="#e6e6e6"/><stop offset=".496" stop-color="#f5f5f5"/><stop offset=".686" stop-color="#fafafa"/><stop offset="1" stop-color="#bbb"/></linearGradient><path d="M296.781-630.484C135.294-630.484 3.9-761.867 3.9-923.363c0-161.502 131.395-292.891 292.881-292.891 161.501 0 292.892 131.389 292.892 292.891 0 161.496-131.391 292.879-292.892 292.879zm0-559.489c-147.002 0-266.607 119.574-266.607 266.609 0 147.006 119.605 266.605 266.607 266.605 147.021 0 266.611-119.6 266.611-266.605 0-147.034-119.591-266.609-266.611-266.609z" fill="url(#s)"/><path d="M510.248-1121.891a293.855 293.855 0 015.156 48.518c29.212 42.758 46.309 94.414 46.309 150.01 0 147.006-119.591 266.605-266.593 266.605-116.084 0-215.054-74.58-251.57-178.326a295.158 295.158 0 01-36.078-33.08c25.891 135.191 145.01 237.68 287.648 237.68 161.483 0 292.866-131.383 292.866-292.879 0-76.537-29.507-146.283-77.738-198.528z" fill="#232121" opacity=".3"/><g fill-rule="evenodd" clip-rule="evenodd"><path d="M154.878-982.167c44.509-58.874 127.9-70.521 184.473-25.727 2.973 2.354 5.696 5.02 7.291 6.435L312.39-964.79c-43.345-25.355-75.7-25.063-104.78.875" fill="#c1272d"/><path d="M324.977-788.033c-47.764 25.832-96.219 22.8-140.984-8.395-16.748-11.67-29.848-26.522-39.116-43.147l42.746-30.569c14.193 31.576 47.879 51.243 81.124 47.368 12.342-1.438 23.271-4.928 32.458-10.303l23.772 45.046z" fill="#009245"/><path d="M144.877-839.575c-24.43-43.823-22.229-99.959 10.001-142.592l52.731 18.253c-26.42 23.567-34.501 61.476-19.986 93.769l-42.746 30.57z" fill="#fbb03b"/><path d="M386.153-906.773c-.26-15.747-1.132-16.141-15.503-16.15-32.667-.022-65.335-.029-98.003.023-2.347.003-4.7.133-7.248.293-3.89 1.005-5.506 4.127-6.158 6.901.15 9.414.48 18.256-.264 26.997-.901 10.57 3.26 13.438 13.197 13.14 19.356-.586 38.744-.172 59.135-.172-3.995 19.078-14.557 33.568-30.105 42.662l23.772 45.046c46.333-25.054 62.007-68.306 61.177-118.74z" fill="#0071bc"/></g><path d="M455-1018.838v29.962l-17.318 16.487-.243-.006-.674.742L420-988.875v-29.962c0-4.966 3.622-9.162 8.588-9.162h16.48c4.966-.001 9.932 4.195 9.932 9.161z" fill-rule="evenodd" clip-rule="evenodd" fill="#c1272d"/><path d="M455-955.167v29.963c0 4.966-4.966 9.204-9.932 9.204h-16.48c-4.966 0-8.588-4.238-8.588-9.204v-29.963l16.646-16.486-.092.007 1.177-.742L455-955.167z" fill-rule="evenodd" clip-rule="evenodd" fill="#009245"/><path fill-rule="evenodd" clip-rule="evenodd" fill="#020202" d="M481.36-923.505l.707-.694.007.007-.707.694z"/><path d="M492-979.887v16.48c0 4.966-3.764 8.407-8.729 8.407H455v-.167l-17.318-16.782L454.057-988h29.214c4.965 0 8.729 3.147 8.729 8.113z" fill-rule="evenodd" clip-rule="evenodd" fill="#0071bc"/><path d="M436.646-971.217L420-955.167v.167h-30.363c-4.966 0-10.637-3.44-10.637-8.407v-16.48c0-4.966 5.67-8.113 10.637-8.113h29.962l17.047 16.783z" fill-rule="evenodd" clip-rule="evenodd" fill="#fbb03b"/><path fill-rule="evenodd" clip-rule="evenodd" fill="#020202" d="M481.36-923.505l.707-.694.007.007-.707.694z"/><path fill-rule="evenodd" clip-rule="evenodd" fill="#020202" d="M481.36-923.505l.707-.694.007.007-.707.694z"/><path fill-rule="evenodd" clip-rule="evenodd" fill="#020202" d="M481.36-923.505l.707-.694.007.007-.707.694z"/><path d="M501.313-1080.445a260.402 260.402 0 012.644 36.977c0 143.088-116.003 259.1-259.106 259.1-84.032 0-158.713-40.02-206.049-102.031 17.939 125.586 125.914 222.145 256.457 222.145 143.099 0 259.102-116.004 259.102-259.107 0-59.075-19.77-113.508-53.048-157.084z" opacity=".2" fill-rule="evenodd" clip-rule="evenodd" fill="#232121"/><path d="M-311.544 1185.938c-152.349 0-276.297-123.943-276.297-276.289 0-152.361 123.948-276.305 276.297-276.305 152.346 0 276.297 123.943 276.297 276.305 0 152.345-123.951 276.289-276.297 276.289z" fill="#e6eaef"/><linearGradient gradientUnits="userSpaceOnUse" id="t" x1="-320.264" x2="-312.764" y1="1160.729" y2="647.755"><stop offset="0" stop-color="#631821"/><stop offset=".11" stop-color="#952432"/><stop offset=".229" stop-color="#c63042"/><stop offset=".322" stop-color="#d15968"/><stop offset=".398" stop-color="#dd838e"/><stop offset=".462" stop-color="#e8acb3"/><stop offset=".525" stop-color="#e2969f"/><stop offset=".602" stop-color="#d76e7b"/><stop offset=".695" stop-color="#cb4152"/><stop offset=".814" stop-color="#a82938"/><stop offset="1" stop-color="#721c26"/></linearGradient><path d="M-57.447 907.121c0 143.104-116.011 259.107-259.117 259.107-143.094 0-259.102-116.004-259.102-259.107 0-143.102 116.008-259.098 259.102-259.098 143.106 0 259.117 115.997 259.117 259.098z" fill-rule="evenodd" clip-rule="evenodd" fill="url(#t)"/><linearGradient gradientUnits="userSpaceOnUse" id="u" x1="-371.212" x2="-260.589" y1="1181.935" y2="652.691"><stop offset="0" stop-color="#631821"/><stop offset=".11" stop-color="#952432"/><stop offset=".229" stop-color="#c63042"/><stop offset=".322" stop-color="#d15968"/><stop offset=".398" stop-color="#dd838e"/><stop offset=".462" stop-color="#e8acb3"/><stop offset=".525" stop-color="#e2969f"/><stop offset=".602" stop-color="#d76e7b"/><stop offset=".695" stop-color="#cb4152"/><stop offset=".814" stop-color="#a82938"/><stop offset="1" stop-color="#721c26"/></linearGradient><path d="M-313.776 1200c-161.487 0-292.881-131.383-292.881-292.879 0-161.502 131.395-292.891 292.881-292.891 161.501 0 292.892 131.389 292.892 292.891 0 161.496-131.39 292.879-292.892 292.879zm0-559.488c-147.002 0-266.607 119.574-266.607 266.609 0 147.006 119.605 266.605 266.607 266.605 147.021 0 266.611-119.6 266.611-266.605 0-147.035-119.59-266.609-266.611-266.609z" fill="url(#u)"/><path d="M-100.309 708.594a293.855 293.855 0 015.156 48.518c29.212 42.758 46.309 94.414 46.309 150.01 0 147.006-119.591 266.605-266.593 266.605-116.084 0-215.054-74.58-251.57-178.326a295.158 295.158 0 01-36.078-33.08c25.891 135.191 145.01 237.68 287.648 237.68 161.483 0 292.866-131.383 292.866-292.879 0-76.538-29.507-146.284-77.738-198.528z" fill="#232121" opacity=".3"/><path d="M-109.243 750.039a260.402 260.402 0 012.644 36.977c0 143.088-116.003 259.1-259.106 259.1-84.032 0-158.713-40.02-206.049-102.031 17.939 125.586 125.914 222.145 256.457 222.145 143.099 0 259.102-116.004 259.102-259.107 0-59.074-19.77-113.508-53.048-157.084z" opacity=".2" fill-rule="evenodd" clip-rule="evenodd" fill="#232121"/><path d="M-161.481 856.763c5.46 45.113 7.24 90.425-1.049 135.371-4.365 23.621-17.75 34.436-41.6 35.606-34.892 1.704-69.799 2.723-103.459 4-35.957-1.292-70.621-2.251-105.239-3.863-30.116-1.414-43.699-13.75-47.851-43.485-4.563-32.474-4.229-65.146-2.267-97.786.669-11.316 1.46-22.755 3.772-33.813 4.943-23.591 16.67-35.166 40.353-36.032 49.813-1.811 99.672-2.206 149.516-2.586 19.971-.167 39.972.988 59.943 2.084 7.24.396 14.678 1.476 21.538 3.741 17.445 5.734 24.366 20.428 26.343 36.763zm-180.423 107.49c27.181-14.799 53.236-28.99 80.249-43.714-27.135-14.19-53.327-27.896-80.249-41.995v85.709z" fill="#e6eaef"/><path d="M-261.655 920.539a191939.546 191939.546 0 01-80.249 43.714v-85.709c26.922 14.1 53.114 27.805 80.249 41.995z" fill="#a9505a"/><path d="M-312.331 575.037c-152.349 0-276.297-123.943-276.297-276.289 0-152.361 123.948-276.305 276.297-276.305 152.346 0 276.297 123.943 276.297 276.305.001 152.346-123.95 276.289-276.297 276.289z" fill="#e6eaef"/><linearGradient gradientUnits="userSpaceOnUse" id="v" x1="-321.05" x2="-313.551" y1="549.829" y2="36.855"><stop offset="0" stop-color="#00bfbf"/><stop offset=".165" stop-color="#0ff"/><stop offset=".314" stop-color="#6ff"/><stop offset=".47" stop-color="#9ff"/><stop offset=".631" stop-color="#72ffff"/><stop offset=".805" stop-color="#13ffff"/><stop offset="1" stop-color="#00caca"/></linearGradient><path d="M-58.233 296.221c0 143.104-116.011 259.107-259.117 259.107-143.094 0-259.102-116.004-259.102-259.107 0-143.102 116.008-259.098 259.102-259.098 143.105 0 259.117 115.996 259.117 259.098z" fill-rule="evenodd" clip-rule="evenodd" fill="url(#v)"/><linearGradient gradientUnits="userSpaceOnUse" id="w" x1="-371.998" x2="-261.375" y1="571.034" y2="41.791"><stop offset="0" stop-color="#00bfbf"/><stop offset=".165" stop-color="#0ff"/><stop offset=".314" stop-color="#6ff"/><stop offset=".47" stop-color="#9ff"/><stop offset=".631" stop-color="#72ffff"/><stop offset=".805" stop-color="#13ffff"/><stop offset="1" stop-color="#00caca"/></linearGradient><path d="M-314.562 589.1c-161.487 0-292.881-131.383-292.881-292.879 0-161.502 131.395-292.891 292.881-292.891 161.501 0 292.892 131.389 292.892 292.891 0 161.496-131.391 292.879-292.892 292.879zm0-559.489c-147.002 0-266.607 119.574-266.607 266.609 0 147.006 119.605 266.605 266.607 266.605 147.021 0 266.611-119.6 266.611-266.605 0-147.034-119.591-266.609-266.611-266.609z" fill="url(#w)"/><path d="M-101.095 97.693a293.855 293.855 0 015.156 48.518c29.212 42.758 46.309 94.414 46.309 150.01 0 147.006-119.591 266.605-266.593 266.605-116.084 0-215.054-74.58-251.57-178.326a295.158 295.158 0 01-36.078-33.08c25.891 135.191 145.01 237.68 287.648 237.68 161.483 0 292.866-131.383 292.866-292.879 0-76.537-29.507-146.283-77.738-198.528z" fill="#232121" opacity=".3"/><path d="M-472.166 410.568c37.853 2.795 70.537-5.633 101.39-28.137-20.91-2.531-37.638-9.77-49.853-24.666-5.76-7.031-9.886-15.396-15.745-24.721h27.092c-30.638-13.686-48.337-35.697-50.171-70.281 9.832 2.879 18.846 5.512 27.86 8.145.384-.516.771-1.029 1.151-1.543-17.829-14.199-27.216-32.588-28.432-55.053-.618-11.396 3.296-26.195 10.2-37.063 37.511 43.539 84.367 68.537 142.332 72.713 0-7.844-.603-14.813.104-21.637 2.905-28.027 17.399-48.313 43.391-58.859 25.911-10.498 50.612-6.539 72.183 11.582 4.877 4.092 8.899 5.211 14.536 3.039 11.317-4.367 22.718-8.527 35.474-13.293-4.801 14.844-13.742 25.873-25.573 34.959.303.639.599 1.26.906 1.889 10.971-3.146 21.938-6.293 32.917-9.447.48.33.967.66 1.455.99-7.41 8.197-13.941 17.498-22.468 24.299-9.152 7.314-12 15.104-12.491 26.785-3.573 85.068-60.471 165.887-149.884 186.578-53.395 12.35-104.191 5.266-151.765-22.51-1.013-.599-1.845-1.497-4.609-3.769z" fill-rule="evenodd" clip-rule="evenodd" fill="#fff"/><path d="M-110.029 139.139a260.402 260.402 0 012.644 36.977c0 143.088-116.003 259.1-259.106 259.1-84.032 0-158.713-40.02-206.049-102.031 17.939 125.586 125.914 222.145 256.457 222.145 143.099 0 259.102-116.004 259.102-259.107 0-59.075-19.77-113.508-53.048-157.084z" opacity=".2" fill-rule="evenodd" clip-rule="evenodd" fill="#232121"/><path d="M-312.352-34.128c-152.349 0-276.297-123.943-276.297-276.29 0-152.361 123.948-276.305 276.297-276.305 152.346 0 276.297 123.944 276.297 276.305 0 152.346-123.95 276.29-276.297 276.29z" fill="#e6eaef"/><linearGradient gradientUnits="userSpaceOnUse" id="x" x1="-375.719" x2="-261.724" y1="-39.603" y2="-573.576"><stop offset="0" stop-color="#00558d"/><stop offset=".212" stop-color="#0071bc"/><stop offset=".352" stop-color="#338dc9"/><stop offset=".864" stop-color="#083654"/></linearGradient><path d="M-58.255-312.945c0 143.102-116.011 259.106-259.116 259.106-143.094 0-259.102-116.004-259.102-259.106 0-143.102 116.008-259.098 259.102-259.098 143.105.001 259.116 115.997 259.116 259.098z" fill-rule="evenodd" clip-rule="evenodd" fill="url(#x)"/><linearGradient gradientUnits="userSpaceOnUse" id="y" x1="-373.055" x2="-259.06" y1="-39.034" y2="-573.008"><stop offset="0" stop-color="#00558d"/><stop offset=".212" stop-color="#0071bc"/><stop offset=".352" stop-color="#338dc9"/><stop offset=".864" stop-color="#083654"/></linearGradient><path d="M-314.583-20.067c-161.487 0-292.881-131.383-292.881-292.878 0-161.502 131.395-292.892 292.881-292.892 161.501 0 292.892 131.39 292.892 292.892 0 161.495-131.391 292.878-292.892 292.878zm0-559.489c-147.002 0-266.607 119.576-266.607 266.611 0 147.006 119.605 266.604 266.607 266.604 147.021 0 266.611-119.599 266.611-266.604 0-147.035-119.591-266.611-266.611-266.611z" fill="url(#y)"/><path d="M-101.116-511.474a293.963 293.963 0 015.156 48.518c29.212 42.758 46.309 94.415 46.309 150.011 0 147.006-119.591 266.604-266.593 266.604-116.084 0-215.054-74.579-251.57-178.325a295.238 295.238 0 01-36.078-33.08c25.891 135.191 145.01 237.679 287.648 237.679 161.483 0 292.866-131.383 292.866-292.878 0-76.537-29.508-146.284-77.738-198.529z" fill="#232121" opacity=".3"/><path d="M-364.514-139.311v-171.876c-11.323 0-21.784-.271-32.216.099-6.121.218-8.387-1.077-8.178-7.036.546-15.615.18-31.25.176-46.876v-6.818c11.149 0 21.624-.386 32.037.143 6.634.333 8.017-1.778 8.074-7.238.156-16.141-.344-32.44 1.895-48.4 4.614-32.814 23.606-50.737 61.543-55.34 25.422-3.08 51.502-1.917 77.845-2.664.172 3.239.367 5.215.37 7.191.019 15.629-.28 31.268.164 46.89.158 5.602-1.506 7.489-8.001 7.29-11.135-.344-22.308-.109-33.45.304-12.46.466-17.934 5.394-18.326 16.343-.366 10.041-.127 20.093-.467 30.13-.134 4.071 1.305 5.516 6.11 5.44 15.569-.249 31.15-.09 46.729-.09h7.706c-.759 7.8-1.369 14.949-2.161 22.074-1.133 10.156-2.457 20.292-3.585 30.455-.898 8.087-.824 8.097-10.299 8.104h-44.398v171.876l-81.568-.001z" fill-rule="evenodd" clip-rule="evenodd" fill="#fff"/><path d="M-110.05-470.027a260.399 260.399 0 012.644 36.976c0 143.088-116.003 259.099-259.106 259.099-84.032 0-158.713-40.019-206.049-102.031 17.939 125.587 125.914 222.145 256.457 222.145 143.099 0 259.102-116.004 259.102-259.106-.001-59.074-19.77-113.507-53.048-157.083z" opacity=".2" fill-rule="evenodd" clip-rule="evenodd" fill="#232121"/><g><path d="M-311.104-643.062c-152.349 0-276.297-123.943-276.297-276.29 0-152.361 123.948-276.305 276.297-276.305 152.346 0 276.297 123.944 276.297 276.305 0 152.347-123.951 276.29-276.297 276.29z" fill="#e6eaef"/><linearGradient gradientUnits="userSpaceOnUse" id="z" x1="-373.557" x2="-262.935" y1="-647.068" y2="-1176.304"><stop offset=".127" stop-color="#fceb22"/><stop offset=".186" stop-color="#fbde21"/><stop offset=".352" stop-color="#f7931e"/><stop offset=".602" stop-color="#f489e9"/><stop offset="1" stop-color="#3f0054"/></linearGradient><path d="M-57.007-921.878c0 143.102-116.011 259.106-259.117 259.106-143.094 0-259.102-116.004-259.102-259.106 0-143.102 116.008-259.098 259.102-259.098 143.106 0 259.117 115.997 259.117 259.098z" fill-rule="evenodd" clip-rule="evenodd" fill="url(#z)"/><linearGradient gradientUnits="userSpaceOnUse" id="A" x1="-370.772" x2="-260.149" y1="-647.065" y2="-1176.309"><stop offset=".127" stop-color="#fceb22"/><stop offset=".186" stop-color="#fbde21"/><stop offset=".352" stop-color="#f7931e"/><stop offset=".602" stop-color="#f489e9"/><stop offset="1" stop-color="#3f0054"/></linearGradient><path d="M-313.335-629c-161.487 0-292.881-131.383-292.881-292.878 0-161.502 131.395-292.892 292.881-292.892 161.501 0 292.892 131.39 292.892 292.892C-20.443-760.383-151.834-629-313.335-629zm0-559.489c-147.002 0-266.607 119.576-266.607 266.611 0 147.006 119.605 266.604 266.607 266.604 147.021 0 266.611-119.599 266.611-266.604 0-147.035-119.591-266.611-266.611-266.611z" fill="url(#A)"/><path d="M-99.869-1120.407a293.855 293.855 0 015.156 48.518c29.212 42.758 46.309 94.415 46.309 150.011 0 147.006-119.591 266.604-266.593 266.604-116.084 0-215.054-74.579-251.57-178.325a295.238 295.238 0 01-36.078-33.08C-576.754-731.487-457.635-629-314.997-629-153.513-629-22.13-760.383-22.13-921.878c0-76.537-29.508-146.284-77.739-198.529z" fill="#232121" opacity=".3"/><path d="M-447.893-907.196c0 33.844.712 67.703-.243 101.529-.68 24.68 18.149 42.782 41.788 42.523 67.21-.728 134.424-.218 201.638-.3 4.426-.024 9.023-.193 13.261-1.366 17.918-4.929 28.12-19.605 28.14-40.26.076-68.154-.388-136.342.264-204.481.225-23.856-17.997-41.948-41.076-41.73-67.442.63-134.888.694-202.338-.033-23.526-.259-42.376 17.688-41.676 42.586.958 33.796.242 67.688.242 101.532z" fill-rule="evenodd" clip-rule="evenodd" fill="#d0bdaf"/><path d="M-415.163-1044.889c-1.019 1.044-1.472 2.833-1.43 5.637.142 10.602.127 21.562.113 30.89-.028 7.225-.042 16.74.071 26.312.028 2.976-.524 4.936-1.713 6.152-1.246 1.23-3.128 1.731-5.875 1.56a110.543 110.543 0 00-6.526-.171c-1.869 0-3.553.028-5.139.057-.679.014-1.359.028-2.053.028-1.005.015-2.038.029-3.072.029v7.74c0 11.446.014 22.878.042 34.31l.042 17.941c.085 35.625.17 72.453-.326 108.608-.127 9.815 3.298 18.814 9.641 25.338 6.37 6.524 15.26 10.13 25.042 10.13h.396c27.746-.258 55.704-.372 90.655-.372 15.628 0 31.243.014 46.843.029 14.708.028 29.883.057 44.832.057 6.186 0 12.386-.015 18.587-.015 3.851 0 7.927-.1 11.679-1.173 14.552-4.106 22.904-16.024 22.933-32.707.071-49.575.042-99.222.014-147.238v-15.781c0-1.488-.099-2.962-.212-4.536-.014-.286-.042-.572-.057-.873-.028-.286-.042-.572-.071-.844-.764-.086-1.5-.129-2.222-.186l-.949-.071c-1.982-.172-3.85-.344-5.705-.344h-18.021c-4.317.043-8.706.043-12.938.043-10.107 0-19.436-.071-27.731-.229-4.134-.1-8.961-1.645-12.599-4.02-17.256-11.46-35.291-17.284-53.623-17.284-6.767 0-13.675.787-20.541 2.332-6.115 1.359-12.004 3.419-18.247 5.594l-1.557.544c-2.52.873-5.125 1.774-7.757 2.632-.227.057-.425 0-.552-.143a.53.53 0 01-.227-.443v-7.726c0-2.561-.014-5.122-.014-7.683v-4.493c-.028-11.561-.057-23.521.071-35.239.057-2.375-.312-3.877-1.161-4.736-.821-.83-2.208-1.216-4.346-1.216h-.354c-10.164.128-19.776.243-28.978.243a1089.3 1089.3 0 01-21.262-.186h-.368c-2.688.001-4.33.473-5.335 1.503zm-1.5 62.839c-.099-8.785-.099-17.699-.071-26.312.028-10.144.028-20.617-.113-30.89-.042-2.89.425-4.707 1.5-5.809 1.047-1.073 2.746-1.574 5.521-1.574h.368c6.794.128 13.943.186 21.262.186 9.06 0 18.53-.115 28.978-.243h.354c2.208 0 3.652.415 4.516 1.288.906.901 1.302 2.432 1.246 4.907-.156 13.234-.099 26.684-.071 39.732 0 5.122.014 10.258.014 15.409 0 .114.057.214.142.257.071.115.212.115.312.086 3.015-.973 5.988-2.017 8.875-3.019 6.385-2.232 12.429-4.364 18.7-5.751 6.937-1.56 13.845-2.332 20.597-2.332 18.375 0 36.466 5.823 53.765 17.312 3.596 2.361 8.352 3.892 12.458 3.992 10.164.186 20.158.229 27.731.229 4.304 0 8.621 0 12.938-.043h18.021c1.968 0 3.949.186 6.044.372 1.005.071 2.01.129 3.072.243.042.644.099 1.302.142 1.932.113 1.631.212 3.062.212 4.55v15.781c.028 48.245.057 98.149-.014 147.238-.028 16.783-8.465 28.815-23.117 32.95-3.851 1.102-8.083 1.173-11.75 1.173-21.164.043-42.284 0-63.419-.043-15.6-.015-31.214-.029-46.843-.029-36.48 0-64.438.129-90.655.372h-.396c-9.838 0-18.785-3.605-25.226-10.201-6.385-6.567-9.838-15.609-9.711-25.51.524-38.344.396-77.375.312-115.089-.028-15.266-.071-30.503-.071-45.77v-7.983c1.854 0 3.638-.043 5.379-.057 1.755-.043 3.468-.058 5.139-.058 2.534 0 4.629.058 6.54.172 2.69.157 4.501-.329 5.677-1.488 1.146-1.173 1.67-3.09 1.642-5.98z"/><path d="M-304.533-996.358c18.431 0 36.565 5.837 53.906 17.341 3.553 2.346 8.281 3.863 12.316 3.963 8.31.143 17.638.229 27.731.229 4.233 0 8.621 0 12.938-.043h18.021c1.883 0 3.751.157 5.747.343l.935.072c.792.043 1.614.1 2.463.2.113.014.212.1.227.229.014.343.042.701.071 1.044.028.3.042.601.071.887.099 1.574.212 3.062.212 4.564v15.781c.028 48.016.057 97.663-.014 147.238-.028 16.926-8.522 29.016-23.301 33.193-3.822 1.087-7.928 1.173-11.82 1.173-6.201.014-12.387.028-18.587.028-14.949 0-30.124-.028-44.818-.071-15.614-.014-31.229-.029-46.857-.029-34.951 0-62.909.115-90.655.372h-.396c-9.909 0-18.927-3.648-25.41-10.273-6.427-6.61-9.909-15.738-9.782-25.682.495-36.155.41-72.982.325-108.608l-.028-17.941c-.028-11.432-.057-22.863-.057-34.31v-7.983c0-.143.113-.243.255-.243 1.133 0 2.237-.029 3.313-.043.694 0 1.388-.014 2.067-.014a190.24 190.24 0 015.139-.058c2.506 0 4.586.043 6.554.172 2.577.143 4.36-.315 5.493-1.417 1.09-1.13 1.585-2.976 1.557-5.809-.099-9.572-.085-19.086-.071-26.312.028-9.329.042-20.288-.113-30.89-.042-2.976.439-4.821 1.571-5.98 1.118-1.145 2.874-1.645 5.705-1.645h.368c6.54.114 13.688.186 21.262.186 9.201 0 18.799-.129 28.978-.244h.354c2.279 0 3.78.429 4.7 1.359.962.958 1.373 2.533 1.316 5.079-.142 11.718-.113 23.679-.085 35.239l.014 4.493v7.683c0 2.575.014 5.151.014 7.726.042.014.071.086.099.129 2.647-.873 5.238-1.774 7.757-2.647l1.571-.544c6.243-2.189 12.146-4.249 18.29-5.608 6.908-1.542 13.845-2.329 20.654-2.329zm-49.815-49.046c-.864-.873-2.308-1.288-4.516-1.288h-.354c-10.447.128-19.918.243-28.978.243-7.319 0-14.468-.058-21.262-.186h-.368c-2.775 0-4.474.5-5.521 1.574-1.076 1.102-1.543 2.919-1.5 5.809.142 10.273.142 20.746.113 30.89-.028 8.613-.028 17.526.071 26.312.028 2.89-.496 4.807-1.642 5.98-1.175 1.159-2.987 1.645-5.677 1.488a108.933 108.933 0 00-6.54-.172c-1.67 0-3.383.015-5.139.058-1.741.014-3.525.057-5.379.057v7.983c0 15.266.042 30.503.071 45.77.085 37.714.212 76.745-.312 115.089-.127 9.901 3.327 18.943 9.711 25.51 6.441 6.596 15.388 10.201 25.226 10.201h.396c26.217-.243 54.175-.372 90.655-.372 15.628 0 31.243.014 46.843.029 21.135.043 42.255.086 63.419.043 3.667 0 7.899-.072 11.75-1.173 14.651-4.135 23.088-16.167 23.117-32.95.071-49.089.042-98.993.014-147.238v-15.781c0-1.488-.099-2.919-.212-4.55-.042-.629-.099-1.288-.142-1.932-1.062-.114-2.067-.172-3.072-.243-2.095-.186-4.077-.372-6.044-.372h-18.021c-4.317.043-8.635.043-12.938.043-7.573 0-17.567-.043-27.731-.229-4.105-.1-8.862-1.631-12.458-3.992-17.299-11.489-35.39-17.312-53.765-17.312-6.752 0-13.661.772-20.597 2.332-6.271 1.388-12.315 3.52-18.7 5.751-2.888 1.002-5.86 2.046-8.875 3.019-.099.029-.241.029-.312-.086-.085-.043-.142-.143-.142-.257 0-5.151-.014-10.287-.014-15.409-.028-13.048-.085-26.498.071-39.732.056-2.475-.34-4.005-1.246-4.907z"/><path d="M-388.195-1047.393c8.678 0 18.162-.1 28.978-.286h.354c2.478 0 4.12.5 5.195 1.574 1.104 1.145 1.585 2.876 1.557 5.608-.156 10.73-.142 21.69-.142 32.263l.014 7.469c.028 4.807.042 9.715.042 14.565 2.718-.901 5.464-1.86 8.041-2.747 6.427-2.261 12.471-4.378 18.841-5.766a92.582 92.582 0 0120.781-2.361c18.559 0 36.82 5.866 54.303 17.455 3.44 2.261 8.012 3.749 11.919 3.863 10.164.201 20.314.201 27.731.201l17.412-.015c4.516-.028 9.017-.043 13.547 0 1.486 0 2.916.1 4.431.215.552.028 1.118.071 1.685.114 1.033.1 2.194.215 3.355.258.354.071.566.314.566.601.042.601.085 1.173.127 1.731l.042.486c.127 1.703.226 3.133.226 4.636v15.781c.028 48.044.057 97.734-.028 147.238-.014 17.298-8.691 29.631-23.782 33.866-3.992 1.116-8.295 1.202-12.033 1.202-15.841.042-31.667.028-47.494 0l-15.925-.015c-6.257 0-12.514-.014-18.771-.014-9.343-.014-18.714-.043-28.072-.043-36.041 0-63.999.114-90.655.358h-.396c-10.107 0-19.309-3.706-25.906-10.459-6.568-6.739-10.122-16.039-9.994-26.183.496-35.396.411-71.48.354-106.376l-.028-8.713c0-5.093-.014-10.187-.028-15.266-.028-10.172-.057-20.331-.057-30.503v-8.355c0-.329.283-.601.623-.601 1.005 0 1.981-.014 2.944-.014h2.76c1.939-.071 3.879-.071 5.153-.071 2.661 0 4.827.071 6.583.157 2.407.157 3.964-.229 4.94-1.188.949-1.03 1.401-2.761 1.373-5.322-.071-7.197-.071-14.522-.071-21.604v-4.707c.028-9.858.042-20.431-.127-30.89-.028-3.176.524-5.193 1.77-6.496 1.246-1.273 3.101-1.817 6.229-1.817h.368c6.754.114 13.903.171 21.265.171zm34.173 1.631c-.977-.973-2.506-1.431-4.842-1.431h-.354c-10.815.2-20.286.286-28.978.286-7.361 0-14.51-.057-21.262-.172h-.368c-2.973 0-4.728.501-5.861 1.674-1.161 1.216-1.656 3.104-1.628 6.152.156 10.459.156 21.032.127 30.89v4.707c-.014 7.082-.014 14.408.071 21.604.028 2.689-.481 4.535-1.529 5.666-1.09 1.073-2.803 1.517-5.323 1.331a152.95 152.95 0 00-11.693-.086c-.92 0-1.84.015-2.774.015h-2.944c-.071 0-.113.071-.113.114v8.355c0 10.173.014 20.331.042 30.503l.042 15.266.014 8.713c.07 34.896.141 70.979-.34 106.376-.127 10.015 3.369 19.187 9.853 25.839s15.558 10.315 25.538 10.315h.396c26.642-.257 54.614-.357 90.655-.357 9.357 0 18.729.014 28.072.028 6.257 0 12.514.015 18.771.029l15.925.014c15.827.015 31.653.029 47.494 0 3.695 0 7.97-.1 11.891-1.202 14.864-4.164 23.4-16.325 23.414-33.379.085-49.504.057-99.193.028-147.238v-15.781c0-1.488-.099-2.904-.227-4.607l-.028-.472c-.042-.572-.085-1.13-.142-1.76 0-.072-.057-.115-.113-.129-1.132-.029-2.308-.143-3.341-.258-.566-.028-1.118-.071-1.685-.1-1.5-.114-2.93-.214-4.388-.229-4.516-.028-9.032-.014-13.547 0l-4.474.015h-12.938c-7.417 0-17.567 0-27.731-.2-4.021-.115-8.692-1.617-12.203-3.92-17.384-11.546-35.56-17.398-54.02-17.398-6.922 0-13.873.801-20.668 2.361-6.342 1.388-12.386 3.505-18.771 5.737a618.731 618.731 0 01-8.395 2.875.301.301 0 01-.227-.042.23.23 0 01-.113-.201c0-4.964-.014-9.972-.042-14.908v-7.469c-.014-10.587-.014-21.533.127-32.263.031-2.587-.394-4.218-1.398-5.263z"/><path d="M-185.545-1011.813c-.155 3.313.56 7.007-.619 9.907-4.534 11.12-14.521 5.859-22.315 6.667-5.656.583-9.551-2.787-10.014-8.735-.408-5.22-.496-10.529.015-15.709.78-7.968 5.302-9.568 22.763-8.712 6.957.323 9.719 3.112 10.016 10.118.084 2.157.007 4.307.007 6.441.056-.001.095.023.147.023z" fill-rule="evenodd" clip-rule="evenodd" fill="#fff"/><path d="M-227.353-898.801c1.635 39.177-31.926 79.687-79.328 79.089-45.81-.598-77.808-40.131-77.5-79.857.304-38.901 30.623-79.299 78.967-79.089 47.793.195 79.456 40.301 77.861 79.857z" fill-rule="evenodd" clip-rule="evenodd" fill="#aa8f7d"/><path d="M-305.552-883.973h.184a.274.274 0 01-.184.114h-.042a.225.225 0 01-.198-.114h.24z"/><path d="M-253.119-949.973c13.066 13.921 20.371 32.993 19.536 50.992-.071 40.905-31.865 72.939-72.366 72.939h-.368c-39.467-.157-70.837-32.521-71.431-73.698-.255-18.428 7.602-37.628 20.993-51.364 9.484-9.715 26.033-21.275 51.104-21.275h.438c20.102.129 38.604 8.084 52.094 22.406zm-37.272 50.906c.085-8.771-6.441-15.824-14.85-16.067-8.366-.215-15.401 6.796-15.557 15.438-.085 4.693 1.458 8.914 4.332 11.861 2.789 2.847 6.554 4.35 10.886 4.35h.028c8.847-.001 15.09-6.397 15.161-15.582z" fill="#577d94"/><path d="M-320.289-899.697c.142-8.241 6.738-14.951 14.694-14.951h.339c8.14.243 14.439 7.082 14.354 15.581-.071 8.813-6.002 15.009-14.467 15.095a.134.134 0 00.042-.101v-.114c8.324-.143 14.156-6.238 14.212-14.88.071-8.355-6.144-15.094-14.156-15.337h-.368c-7.8 0-14.27 6.596-14.425 14.708-.085 4.536 1.373 8.584 4.091 11.389 2.604 2.647 6.101 4.063 10.136 4.121v.086c0 .043.014.1.042.129-4.105-.058-7.659-1.502-10.306-4.207-2.786-2.863-4.273-6.955-4.188-11.519z"/><path d="M-320.798-899.697c.156-8.642 7.191-15.652 15.557-15.438 8.409.243 14.935 7.296 14.85 16.067-.071 9.186-6.314 15.581-15.161 15.581h-.028c-4.332 0-8.098-1.502-10.886-4.35-2.874-2.946-4.417-7.167-4.332-11.86zm15.528-15.08c-8.168-.186-14.991 6.639-15.146 15.08-.071 4.65 1.43 8.785 4.247 11.661 2.689 2.718 6.342 4.164 10.575 4.178h.042c8.635 0 14.722-6.252 14.807-15.209.071-8.57-6.314-15.467-14.525-15.71z"/><path d="M-291.113-899.067c-.057 8.642-5.889 14.737-14.212 14.88v.114a.134.134 0 01-.042.101h-.424c-.028-.029-.042-.086-.042-.129v-.086c-4.035-.057-7.531-1.474-10.136-4.121-2.718-2.804-4.176-6.853-4.091-11.389.156-8.112 6.625-14.708 14.425-14.708h.368c8.01.243 14.225 6.982 14.154 15.338zm-24.702 10.673c2.604 2.647 6.158 4.049 10.263 4.049 8.338 0 14.212-6.052 14.297-14.723.071-8.298-6.087-14.98-14.029-15.223h-.311c-7.758 0-14.185 6.553-14.312 14.594-.085 4.521 1.373 8.542 4.092 11.303z"/><path d="M-305.595-914.648c-7.956 0-14.553 6.71-14.694 14.951-.085 4.564 1.402 8.656 4.19 11.518 2.647 2.704 6.2 4.149 10.306 4.207a.225.225 0 00.198.114c-4.233-.014-7.885-1.459-10.575-4.178-2.817-2.876-4.317-7.011-4.247-11.661.155-8.441 6.979-15.266 15.146-15.08 8.211.243 14.595 7.14 14.524 15.709-.085 8.957-6.172 15.209-14.807 15.209a.274.274 0 00.184-.114c8.465-.086 14.396-6.281 14.467-15.095.085-8.499-6.214-15.337-14.354-15.581l-.338.001z"/><path d="M-291.255-899.067c-.085 8.67-5.959 14.723-14.297 14.723-4.105 0-7.659-1.402-10.263-4.049-2.718-2.761-4.176-6.782-4.091-11.303.127-8.041 6.554-14.594 14.312-14.594h.311c7.941.243 14.099 6.924 14.028 15.223zm-14.297 14.393c8.154-.043 13.873-5.966 13.929-14.394.071-8.083-5.931-14.608-13.661-14.851h-.354c-7.531 0-13.788 6.381-13.916 14.222-.085 4.407 1.316 8.327 3.95 11.045 2.548 2.59 6.016 3.978 10.022 3.978h.03z"/><g fill="#415e6f"><path d="M-304.776-936.586c19.81.522 35.141 17.167 34.935 37.885-.172 21.554-14.814 36.631-35.624 36.667h-.069c-10.232 0-19.052-3.482-25.529-10.063-6.787-6.929-10.439-16.923-10.232-28.135.344-20.371 16.813-36.876 36.519-36.354zm34.693 37.885c.207-20.683-14.952-37.119-34.693-37.641-19.431-.522-35.934 15.913-36.278 36.109-.379 22.424 14.229 37.989 35.589 37.954 20.706-.034 35.21-14.972 35.382-36.422z"/><path d="M-304.776-936.342c19.741.522 34.9 16.958 34.693 37.641-.172 21.45-14.677 36.388-35.382 36.422-21.36.035-35.968-15.53-35.589-37.954.345-20.196 16.847-36.631 36.278-36.109zm34.452 37.641c.207-20.439-14.952-36.875-34.452-37.397h-.896c-19.052 0-34.797 16.087-35.142 35.865-.172 11.107 3.411 20.962 10.095 27.787 6.408 6.477 15.09 9.924 25.185 9.924h.069c20.499-.035 34.969-14.904 35.141-36.179z"/><path d="M-304.776-936.098c19.5.522 34.659 16.958 34.452 37.397-.172 21.275-14.642 36.144-35.141 36.179h-.069c-10.095 0-18.776-3.447-25.185-9.924-6.684-6.825-10.267-16.679-10.095-27.787.345-19.778 16.089-35.865 35.142-35.865h.896z"/></g><path d="M-305.27-914.534c8.112.243 14.34 6.982 14.27 15.466-.085 8.856-6.03 14.966-14.552 14.966-8.763 0-14.765-6.367-14.609-15.595.141-8.269 6.922-15.023 14.891-14.837z" fill="#233a48"/><g fill="#512616"><path d="M-447.893-907.196c0-33.843.716-67.736-.243-101.53-.701-24.898 18.149-42.846 41.676-42.586 67.45.727 134.896.663 202.338.033 23.079-.218 41.301 17.874 41.076 41.73-.651 68.139-.188 136.327-.264 204.481-.02 20.655-10.222 35.331-28.14 40.26-4.237 1.172-8.835 1.341-13.261 1.366-67.214.082-134.428-.428-201.638.3-23.638.259-42.467-17.843-41.788-42.523.956-33.829.244-67.688.244-101.531zm262.348-104.617c-.052 0-.091-.023-.148-.023 0-2.134.077-4.284-.007-6.441-.297-7.006-3.059-9.795-10.016-10.118-17.461-.856-21.982.744-22.763 8.712-.511 5.18-.423 10.489-.015 15.709.463 5.948 4.357 9.318 10.014 8.735 7.795-.807 17.781 4.453 22.315-6.667 1.179-2.901.464-6.594.62-9.907zm15.376 37.463c-3.418-.234-6.42-.623-9.436-.623-19.568-.064-39.148.195-58.719-.209-4.133-.089-8.781-1.625-12.252-3.92-22.936-15.225-47.681-21.059-74.623-15.031-9.246 2.07-18.137 5.713-27.616 8.785 0-18.482-.136-36.809.085-55.137.067-4.962-1.567-6.65-6.493-6.578-16.743.266-33.485.355-50.224.097-5.792-.097-7.847 1.753-7.752 7.725.284 19.071-.035 38.118.165 57.198.055 5.204-1.62 7.41-6.924 7.111-5.561-.339-11.13-.08-17.427-.08v8.355c0 53.642.471 107.267-.24 160.884-.279 20.841 15.032 36.251 35.677 36.034 66.958-.639 133.94-.21 200.906-.267 3.971 0 8.092-.137 11.874-1.196 14.868-4.202 23.326-16.243 23.343-33.311.096-54.352.048-108.697.023-163.018 0-2.108-.223-4.199-.367-6.819z" fill-rule="evenodd" clip-rule="evenodd"/><path d="M-406.836-762.425c-11.853 0-22.699-4.493-30.559-12.679-7.703-7.992-11.761-18.861-11.442-30.586.66-23.677.5-47.758.368-71.056-.067-9.973-.128-20.3-.128-30.449 0-10.166.061-20.502.128-30.498.145-23.298.292-47.38-.368-71.033-.339-11.782 3.718-22.675 11.401-30.667 7.836-8.146 18.666-12.638 30.495-12.638h.496c32.481.363 66.178.534 100.16.534 33.001 0 67.373-.17 102.162-.493h.412c11.322 0 21.815 4.331 29.535 12.218 7.743 7.903 11.941 18.62 11.838 30.224-.444 46.214-.381 93.206-.309 138.67.033 21.947.076 43.878.048 65.811-.015 21.011-10.475 35.929-28.671 40.939-4.379 1.212-9.043 1.39-13.441 1.39-21.567.017-43.144 0-64.716-.048-16.171-.017-32.345-.041-48.516-.041-35.428 0-62.681.129-88.398.404h-.495zm-.104-288.178c-11.453 0-21.907 4.348-29.483 12.203-7.416 7.726-11.317 18.248-11.006 29.657.676 23.669.521 47.751.372 71.064-.059 9.98-.123 20.316-.123 30.482 0 10.149.064 20.461.123 30.449.149 23.298.297 47.403-.359 71.08-.315 11.346 3.598 21.852 11.038 29.577 7.593 7.887 18.086 12.235 29.543 12.235h.488c25.706-.275 52.978-.404 88.406-.404 16.171 0 32.345.024 48.529.04 21.56.048 43.136.064 64.703.048 4.294 0 8.855-.169 13.073-1.325 17.53-4.832 27.6-19.265 27.624-39.573.02-21.932-.008-43.863-.039-65.811-.077-45.465-.141-92.456.287-138.704.119-11.184-3.941-21.56-11.418-29.196-7.451-7.613-17.586-11.791-28.527-11.791h-.4c-34.793.324-69.161.501-102.174.501a9619.4 9619.4 0 01-100.176-.517l-.481-.015zm.591 281.592c-10.126 0-19.34-3.726-25.957-10.521-6.601-6.765-10.171-16.081-10.03-26.264.512-38.28.411-77.239.315-114.896-.04-15.322-.083-30.643-.083-45.964v-9.059h.719c1.947 0 3.845-.024 5.692-.065 1.748-.016 3.467-.04 5.145-.04 2.575 0 4.678.064 6.629.17 2.33.121 3.926-.26 4.856-1.188.928-.97 1.347-2.61 1.328-5.204-.101-8.776-.077-17.729-.064-26.393.02-10.085.04-20.534-.104-30.789-.056-3.216.5-5.244 1.787-6.585 1.276-1.302 3.211-1.882 6.26-1.882h.428c6.604.113 13.597.177 20.789.177 9.067 0 18.686-.09 29.391-.258h.34c2.586 0 4.217.484 5.313 1.616 1.119 1.155 1.603 2.901 1.575 5.673-.16 13.301-.14 26.853-.104 39.936.008 4.736.008 9.471.02 14.223 2.671-.897 5.329-1.819 7.916-2.716 6.421-2.254 12.48-4.363 18.841-5.794 6.989-1.551 13.993-2.359 20.837-2.359 18.566 0 36.834 5.883 54.325 17.496 3.418 2.263 7.968 3.725 11.882 3.789 10.146.219 20.2.26 27.837.26 4.077 0 8.158-.025 12.24-.025 6.209-.016 12.422-.016 18.621-.016 2.063.016 4.105.194 6.273.388 1.035.081 2.098.162 3.209.251l.625.041.031.614c.056.88.104 1.689.172 2.457.104 1.535.209 2.974.209 4.412l.011 29.77c.021 43.67.04 88.827-.036 133.248-.027 17.319-8.727 29.73-23.866 33.982-3.962 1.131-8.307 1.228-12.065 1.228-21.111.016-42.212 0-63.32-.032-15.795-.017-31.585-.042-47.381-.042-36.268 0-64.08.114-90.205.364h-.401zm-34.332-205.274v7.629c0 15.322.032 30.643.08 45.964.087 37.657.196 76.616-.32 114.92-.124 9.778 3.286 18.756 9.615 25.237 6.356 6.513 15.223 10.101 24.958 10.101h.388c26.125-.258 53.949-.363 90.217-.363 15.795 0 31.586.016 47.381.041 21.108.024 42.217.04 63.32.024 3.658 0 7.892-.088 11.686-1.18 14.477-4.065 22.807-15.96 22.828-32.599.071-44.421.06-89.577.031-133.248l-.012-29.77c0-1.389-.092-2.748-.2-4.332-.04-.565-.096-1.188-.124-1.811-.895-.08-1.774-.152-2.614-.209-2.144-.194-4.157-.364-6.157-.364-6.212-.024-12.412-.024-18.609 0-4.094 0-8.175.016-12.252.016-7.648 0-17.719-.016-27.865-.226-4.153-.089-9.006-1.641-12.633-4.057-17.25-11.443-35.268-17.261-53.545-17.261-6.74 0-13.648.792-20.529 2.343-6.289 1.406-12.309 3.5-18.685 5.729-2.891 1.01-5.861 2.054-8.875 3.03l-.932.299v-.977c0-5.067 0-10.142-.008-15.201-.032-13.108-.055-26.635.104-39.953.021-2.368-.335-3.798-1.167-4.654-.795-.808-2.167-1.188-4.305-1.188h-.304c-10.726.169-20.353.25-29.427.25-7.192 0-14.204-.065-20.824-.162h-.393c-2.65 0-4.265.445-5.245 1.447-.996 1.026-1.439 2.789-1.396 5.567.153 10.271.132 20.72.113 30.805-.017 8.663-.028 17.584.059 26.393.032 2.982-.519 4.962-1.738 6.197-1.235 1.262-3.146 1.795-5.937 1.617-1.919-.104-4.01-.169-6.549-.169-1.678 0-3.382.023-5.137.064-1.624.003-3.287.051-4.998.051zm243.675-19.67c-1.607 0-3.298-.178-4.909-.339-2.195-.227-4.449-.453-6.488-.243-6.113.646-10.299-3.087-10.794-9.374-.464-5.883-.456-11.055.007-15.863.72-7.305 4.534-9.543 16.315-9.543 2.022 0 4.378.065 7.2.194 7.275.363 10.375 3.492 10.678 10.828.064 1.487.045 3.006.036 4.461-.017.436-.017.888-.024 1.309h.033l.115.727c-.057 1.018-.008 2.11.02 3.152.084 2.409.173 4.889-.695 7.015-2.763 6.796-7.589 7.676-11.494 7.676zm-9.635-2.092c1.579 0 3.249.169 4.856.314 1.58.169 3.23.348 4.778.348 3.673 0 7.751-.808 10.187-6.804.746-1.835.676-4.047.588-6.392-.028-.873-.061-1.771-.041-2.643l-.127-.614c0-.663 0-1.35.016-2.029.02-1.422.027-2.925-.029-4.372-.279-6.667-2.718-9.139-9.338-9.463-2.795-.112-5.121-.193-7.124-.193-12.125 0-14.327 2.432-14.899 8.275-.464 4.711-.464 9.81-.008 15.58.428 5.52 3.961 8.631 9.243 8.073.59-.04 1.213-.08 1.898-.08z"/></g><path fill-rule="evenodd" clip-rule="evenodd" fill="#2e3192" d="M-352.834-1047.063h-16.383v70.75l16.383-8.098z"/><path fill-rule="evenodd" clip-rule="evenodd" fill="#006837" d="M-368.51-975.949v-71.114h-16.378v70.75h15.671z"/><path fill-rule="evenodd" clip-rule="evenodd" fill="#fbb03b" d="M-400.611-1047.063h16.378v71.113h-16.378z"/><path fill-rule="evenodd" clip-rule="evenodd" fill="#bf0004" d="M-399.9-975.99v-71.073h-16.383v70.774z"/><path d="M-179.324-1007.773c0 9.488-7.613 17.164-16.982 17.164h-11.682c-9.387 0-16.986-7.676-16.986-17.164v-5.6c0-9.479 7.6-17.18 16.986-17.18h11.682c9.369 0 16.982 7.701 16.982 17.18v5.6z" fill-rule="evenodd" clip-rule="evenodd" fill="#263846"/><path d="M-347.498-987.352c-.915-4.194-4.617-7.33-9.046-7.33h-75.509c-5.129 0-9.275 4.194-9.275 9.375 0 5.155 4.146 9.358 9.275 9.358h72.958c2.658-6.781 7.571-9.932 11.597-11.403z" fill="#cec3c0"/><path d="M-378.296-904.174a72.96 72.96 0 00-.264 5.948c0 40.752 32.682 73.812 73.015 73.812 40.313 0 72.999-33.06 72.999-73.812 0-1.68-.076-3.346-.18-5.011-56.528 27.945-109.355 15.79-145.57-.937z" opacity=".2"/><g fill="#512616"><path d="M-447.893-907.196c0-33.843.716-67.736-.243-101.53-.701-24.898 18.149-42.846 41.676-42.586 67.45.727 134.896.663 202.338.033 23.079-.218 41.301 17.874 41.076 41.73-.651 68.139-.188 136.327-.264 204.481-.02 20.655-10.222 35.331-28.14 40.26-4.237 1.172-8.835 1.341-13.261 1.366-67.214.082-134.428-.428-201.638.3-23.638.259-42.467-17.843-41.788-42.523.956-33.829.244-67.688.244-101.531zm262.348-104.617c-.052 0-.091-.023-.148-.023 0-2.134.077-4.284-.007-6.441-.297-7.006-3.059-9.795-10.016-10.118-17.461-.856-21.982.744-22.763 8.712-.511 5.18-.423 10.489-.015 15.709.463 5.948 4.357 9.318 10.014 8.735 7.795-.807 17.781 4.453 22.315-6.667 1.179-2.901.464-6.594.62-9.907zm15.376 37.463c-3.418-.234-6.42-.623-9.436-.623-19.568-.064-39.148.195-58.719-.209-4.133-.089-8.781-1.625-12.252-3.92-22.936-15.225-47.681-21.059-74.623-15.031-9.246 2.07-18.137 5.713-27.616 8.785 0-18.482-.136-36.809.085-55.137.067-4.962-1.567-6.65-6.493-6.578-16.743.266-33.485.355-50.224.097-5.792-.097-7.847 1.753-7.752 7.725.284 19.071-.035 38.118.165 57.198.055 5.204-1.62 7.41-6.924 7.111-5.561-.339-11.13-.08-17.427-.08v8.355c0 53.642.471 107.267-.24 160.884-.279 20.841 15.032 36.251 35.677 36.034 66.958-.639 133.94-.21 200.906-.267 3.971 0 8.092-.137 11.874-1.196 14.868-4.202 23.326-16.243 23.343-33.311.096-54.352.048-108.697.023-163.018 0-2.108-.223-4.199-.367-6.819z" fill-rule="evenodd" clip-rule="evenodd"/><path d="M-406.836-762.425c-11.853 0-22.699-4.493-30.559-12.679-7.703-7.992-10.782-209.969-11.442-233.622-.339-11.782 3.718-22.675 11.401-30.667 7.836-8.146 18.666-12.638 30.495-12.638h.496c32.481.363 66.178.534 100.16.534 33.001 0 67.373-.17 102.162-.493h.412c11.322 0 21.815 4.331 29.535 12.218 7.743 7.903 11.941 18.62 11.838 30.224-.444 46.214-.232 182.549-.261 204.481-.015 21.011-10.475 35.929-28.671 40.939-4.379 1.212-9.043 1.39-13.441 1.39-21.567.017-43.144 0-64.716-.048-16.171-.017-32.345-.041-48.516-.041-35.428 0-62.681.129-88.398.404h-.495zm-.104-288.178c-11.453 0-21.907 4.348-29.483 12.203-7.416 7.726-10.653 18.249-11.006 29.657-.726 23.427.313 122.007.372 131.996.149 23.298.297 47.403-.359 71.08-.315 11.346 3.598 21.852 11.038 29.577 7.593 7.887 18.086 12.235 29.543 12.235h.488c25.706-.275 52.978-.404 88.406-.404 16.171 0 32.345.024 48.529.04 21.56.048 43.136.064 64.703.048 4.294 0 8.855-.169 13.073-1.325 17.53-4.832 27.6-19.265 27.624-39.573.02-21.932-3.693-226.074-11.17-233.71-7.451-7.613-17.586-11.791-28.527-11.791h-.4c-34.793.324-69.161.501-102.174.501a9619.4 9619.4 0 01-100.176-.517l-.481-.017zm.591 281.592c-10.126 0-19.34-3.726-25.957-10.521-6.601-6.765-10.171-16.081-10.03-26.264.512-38.28.411-77.239.315-114.896-.04-15.322-.083-30.643-.083-45.964v-9.059h.719c1.947 0 3.845-.024 5.692-.065 1.748-.016 3.467-.04 5.145-.04 2.575 0 4.678.064 6.629.17 2.33.121 3.926-.26 4.856-1.188.928-.97 1.347-2.61 1.328-5.204-.101-8.776-.077-17.729-.064-26.393.02-10.085.04-20.534-.104-30.789-.056-3.216.5-5.244 1.787-6.585 1.276-1.302 3.211-1.882 6.26-1.882h.428c6.604.113 13.597.177 20.789.177 9.067 0 18.686-.09 29.391-.258h.34c2.586 0 4.217.484 5.313 1.616 1.119 1.155 1.603 2.901 1.575 5.673-.16 13.301-.14 26.853-.104 39.936.008 4.736.008 9.471.02 14.223 2.671-.897 5.329-1.819 7.916-2.716 6.421-2.254 12.48-4.363 18.841-5.794 6.989-1.551 13.993-2.359 20.837-2.359 18.566 0 36.834 5.883 54.325 17.496 3.418 2.263 7.968 3.725 11.882 3.789 10.146.219 20.2.26 27.837.26 4.077 0 8.158-.025 12.24-.025 6.209-.016 12.422-.016 18.621-.016 2.063.016 4.105.194 6.273.388 1.035.081 2.098.162 3.209.251l.625.041.031.614c.056.88.104 1.689.172 2.457.104 1.535.209 2.974.209 4.412l.011 29.77c.021 43.67.04 88.827-.036 133.248-.027 17.319-8.727 29.73-23.866 33.982-3.962 1.131-8.307 1.228-12.065 1.228-21.111.016-42.212 0-63.32-.032-15.795-.017-31.585-.042-47.381-.042-36.268 0-64.08.114-90.205.364h-.401zm-34.332-205.274v7.629c0 15.322.276 122.581-.24 160.884-.124 9.778 3.286 18.756 9.615 25.237 6.356 6.513 15.223 10.101 24.958 10.101h.388c26.125-.258 53.949-.363 90.217-.363 15.795 0 31.586.016 47.381.041 21.108.024 42.217.04 63.32.024 3.658 0 7.892-.088 11.686-1.18 14.477-4.065 22.807-15.96 22.828-32.599.071-44.421.06-89.577.031-133.248l-.012-29.77c0-1.389-.092-2.748-.2-4.332-.04-.565-.096-1.188-.124-1.811-.895-.08-1.774-.152-2.614-.209-2.144-.194-4.157-.364-6.157-.364-6.212-.024-12.412-.024-18.609 0-4.094 0-8.175.016-12.252.016-7.648 0-17.719-.016-27.865-.226-4.153-.089-9.006-1.641-12.633-4.057-17.25-11.443-35.268-17.261-53.545-17.261-6.74 0-13.648.792-20.529 2.343-6.289 1.406-12.309 3.5-18.685 5.729-2.891 1.01-5.861 2.054-8.875 3.03l-.932.299v-.977c0-5.067 0-10.142-.008-15.201-.032-13.108-.055-26.635.104-39.953.021-2.368-.335-3.798-1.167-4.654-.795-.808-2.167-1.188-4.305-1.188h-.304c-10.726.169-20.353.25-29.427.25-7.192 0-14.204-.065-20.824-.162h-.393c-2.65 0-4.265.445-5.245 1.447-.996 1.026-1.439 2.789-1.396 5.567.153 10.271.132 20.72.113 30.805-.017 8.663-.028 17.584.059 26.393.032 2.982-.519 4.962-1.738 6.197-1.235 1.262-3.146 1.795-5.937 1.617-1.919-.104-4.01-.169-6.549-.169-1.678 0-3.382.023-5.137.064-1.624.003-3.287.051-4.998.051zm243.675-19.67c-1.607 0-3.298-.178-4.909-.339-2.195-.227-4.449-.453-6.488-.243-6.113.646-10.299-3.087-10.794-9.374-.464-5.883-.456-11.055.007-15.863.72-7.305 4.534-9.543 16.315-9.543 2.022 0 4.378.065 7.2.194 7.275.363 10.375 3.492 10.678 10.828.064 1.487.045 3.006.036 4.461-.017.436-.017.888-.024 1.309h.033l.115.727c-.057 1.018-.008 2.11.02 3.152.084 2.409.173 4.889-.695 7.015-2.763 6.796-7.589 7.676-11.494 7.676zm-9.635-2.092c1.579 0 3.249.169 4.856.314 1.58.169 3.23.348 4.778.348 3.673 0 7.751-.808 10.187-6.804.746-1.835.676-4.047.588-6.392-.028-.873-.061-1.771-.041-2.643l-.127-.614c0-.663 0-1.35.016-2.029.02-1.422.027-2.925-.029-4.372-.279-6.667-2.718-9.139-9.338-9.463-2.795-.112-5.121-.193-7.124-.193-12.125 0-14.327 2.432-14.899 8.275-.464 4.711-.464 9.81-.008 15.58.428 5.52 3.961 8.631 9.243 8.073.59-.04 1.213-.08 1.898-.08z"/></g><path d="M-202.447-1025.463c-4.857 0-8.013 2.223-9.814 4.073-2.563 2.603-4.059 6.263-4.002 9.763.111 7.846 6.08 14.02 13.611 14.044l.061.364v-.364c7.715 0 13.772-6.093 13.792-13.9.145-3.426-1.251-7.038-3.733-9.697-2.564-2.722-6.082-4.258-9.915-4.283z" fill="#577d94"/><path d="M-202.375-1018.307c3.75.108 6.56 3.172 6.526 7.112-.033 4.028-2.776 6.848-6.661 6.848-1.922 0-3.576-.652-4.786-1.889-1.263-1.284-1.942-3.152-1.902-5.244.067-3.771 3.044-6.834 6.641-6.834l.182.007z" fill="#415e6f"/><path d="M-202.543-1014.893c1.994.037 3.48 1.585 3.458 3.606-.011 2.077-1.425 3.531-3.441 3.531-.964 0-1.842-.352-2.477-.988-.649-.67-.994-1.616-.975-2.668.027-1.917 1.571-3.481 3.435-3.481z" fill="#233a48"/><path d="M-216.216-1013.332c-.019.387-.039.768-.039 1.146 0 7.742 6.224 14.029 13.883 14.029 7.666 0 13.89-6.287 13.89-14.029 0-.339-.013-.638-.036-.953-10.755 5.31-20.802 3.006-27.698-.193z" opacity=".2"/><path d="M-444.875-902.639s125.106 155.414 278.879 0v107.316s-3.613 23.904-29.584 27.887c-25.977 3.992 0 1.43 0 1.43l-216.022.809s-30.259-5.479-33.273-28.348v-109.094z" opacity=".2" fill-rule="evenodd" clip-rule="evenodd"/><path d="M-108.803-1078.96a260.399 260.399 0 012.644 36.976c0 143.088-116.003 259.099-259.106 259.099-84.032 0-158.713-40.019-206.049-102.031C-553.375-759.33-445.4-662.772-314.857-662.772c143.099 0 259.102-116.004 259.102-259.106 0-59.073-19.77-113.506-53.048-157.082z" opacity=".2" fill-rule="evenodd" clip-rule="evenodd" fill="#232121"/></g></svg>